<?xml version="1.0" ?>
<svg xmlns="http://www.w3.org/2000/svg" xmlns:ev="http://www.w3.org/2001/xml-events" xmlns:xlink="http://www.w3.org/1999/xlink" baseProfile="full" height="1290" version="1.1" viewBox="1970.0 2650.0 1120.0 1290.0" width="1120">
	<defs/>
	<path d="M 1974.453387766644,3027.8940409663724 L 1976.0,3048.0 L 1983.0,3038.0 L 1983.5137682761099,3036.715579309725" fill="none" stroke="#404040" stroke-width="3.0"/>
	<path d="M 1977.8729087591992,3025.6550380606836 L 1978.0,3026.0 L 1986.0,3022.0 L 1991.0,3020.0 L 2011.0,3016.0 L 1992.0,3016.0 L 1986.5118169457369,3013.647921548173" fill="none" stroke="#404040" stroke-width="3.0"/>
	<path d="M 1985.6818480832187,3000.7273923328744 L 1987.0,3006.0 L 1989.0,3012.0 L 1991.0,3021.0 L 1989.3123371270815,3022.2657471546886" fill="none" stroke="#404040" stroke-width="3.0"/>
	<path d="M 1989.5646361237543,3017.217236299668 L 2000.0,3020.0 L 2013.0,3019.0 L 2019.0,3017.0 L 2015.0,3021.0 L 2004.0,3026.0 L 1988.339170493583,3033.8304147532085" fill="none" stroke="#404040" stroke-width="3.0"/>
	<path d="M 1981.5044747495497,2976.587062291291 L 1988.0,2982.0 L 1981.576791279469,2974.1494115637956" fill="none" stroke="#404040" stroke-width="3.0"/>
	<path d="M 1988.739802177275,3000.5858358064174 L 1999.0,3003.0 L 2004.0,3003.0 L 2006.0,3008.0 L 1993.0,3008.0 L 1993.0,2998.0 L 1985.0,2984.0 L 1980.0,2977.0 L 1988.0,2984.0 L 2005.0,3006.0 L 1995.0,3005.0 L 1987.0,3003.0 L 1979.0,3000.0 L 1974.0,2989.0 L 1972.0,2982.0 L 1975.0,2986.0 L 1981.0,2996.0 L 1988.0,3000.0 L 1990.0,3007.0 L 1993.0,3012.0 L 1996.0,2998.0 L 2002.0,2997.0 L 2003.0,3023.0 L 2027.0,3005.0 L 2016.0,3003.0 L 2008.0,3001.0 L 1998.0,3000.0 L 1989.0,2988.0 L 1984.0,2986.0 L 1978.0,2978.0 L 1977.0,2961.0 L 1978.0,2944.0 L 1984.0,2920.0 L 1991.0,2891.0 L 2009.0,2867.0 L 1995.0,2893.0 L 2001.0,2891.0 L 2014.0,2884.0 L 2016.0,2879.0 L 2023.0,2886.0 L 2023.0,2891.0 L 2018.0,2904.0 L 2014.0,2912.0 L 2019.0,2910.0 L 2023.0,2895.0 L 2014.0,2907.0 L 2010.0,2914.0 L 2007.0,2920.0 L 2025.0,2899.0 L 2022.0,2894.0 L 2016.0,2891.0 L 2017.0,2897.0 L 2011.0,2896.0 L 1997.0,2912.0 L 1995.0,2918.0 L 2002.0,2911.0 L 1988.0,2912.0 L 1991.0,2906.0 L 1992.0,2896.0 L 1990.0,2888.0 L 1998.0,2886.0 L 2002.0,2896.0 L 2010.0,2909.0 L 2005.0,2919.0 L 1997.0,2936.0 L 1995.0,2927.0 L 1997.0,2933.0 L 1998.0,2928.0 L 2006.0,2911.0 L 2005.0,2905.0 L 1981.0,2905.0 L 1984.0,2901.0 L 1976.0,2906.0 L 1975.375150023973,2909.124249880135" fill="none" stroke="#404040" stroke-width="3.0"/>
	<path d="M 1980.8431294134386,2922.254964692491 L 1982.0,2913.0 L 1989.0,2915.0 L 1984.0,2918.0 L 1985.0,2930.0 L 1978.0,2950.0 L 1971.0,2961.0 L 1975.0,2947.0 L 1978.0,2933.0 L 1978.0,2907.0 L 1982.0,2904.0 L 2004.0,2893.0 L 2004.0,2886.0 L 2009.0,2884.0 L 2021.0,2863.0 L 2020.0,2878.0 L 2020.0,2892.0 L 2016.0,2896.0 L 2002.0,2908.0 L 1996.0,2905.0 L 1986.0,2884.0 L 1991.0,2887.0 L 2002.0,2873.0 L 2006.0,2866.0 L 2011.0,2844.0 L 2013.0,2837.0 L 2020.0,2820.0 L 2027.0,2818.0 L 2030.0,2813.0 L 2028.0,2806.0 L 2022.0,2801.0 L 2018.0,2813.0 L 2011.0,2833.0 L 2010.0,2838.0 L 2019.0,2818.0 L 2020.0,2829.0 L 2019.0,2840.0 L 2002.0,2858.0 L 1996.0,2866.0 L 2005.0,2866.0 L 2005.0,2853.0 L 2002.0,2861.0 L 1997.0,2870.0 L 1986.0,2860.0 L 1993.0,2847.0 L 1996.0,2833.0 L 1985.0,2860.0 L 1984.0,2865.0 L 2003.0,2863.0 L 2009.0,2862.0 L 2013.0,2850.0 L 2017.0,2846.0 L 2017.0,2835.0 L 2024.0,2831.0 L 2022.0,2854.0 L 2026.0,2838.0 L 2026.0,2819.0 L 2019.0,2816.0 L 2023.0,2809.0 L 2023.0,2804.0 L 2026.0,2794.0 L 2031.0,2781.0 L 2027.0,2786.0 L 2018.0,2805.0 L 2030.0,2831.0 L 2029.0,2823.0 L 2029.0,2816.0 L 2024.0,2820.0 L 2022.0,2834.0 L 2020.0,2844.0 L 2020.0,2852.0 L 2026.0,2869.0 L 2010.0,2875.0 L 2017.0,2869.0 L 2028.0,2862.0 L 2018.0,2874.0 L 2012.0,2882.0 L 2007.0,2893.0 L 1994.0,2895.0 L 1994.0,2884.0 L 1989.0,2884.0 L 2009.0,2866.0 L 2012.0,2861.0 L 2014.0,2856.0 L 2014.0,2843.0 L 2015.0,2838.0 L 2021.0,2824.0 L 2024.0,2815.0 L 2026.0,2804.0 L 2031.0,2786.0 L 2035.0,2780.0 L 2046.0,2766.0 L 2036.0,2789.0 L 2031.0,2801.0 L 2026.0,2817.0 L 2032.0,2789.0 L 2042.0,2774.0 L 2051.0,2769.0 L 2040.0,2766.0 L 2032.0,2761.0 L 2029.0,2765.0 L 2020.0,2781.0 L 2014.0,2782.0 L 2014.0,2770.0 L 2010.0,2773.0 L 2009.0,2778.0 L 2012.0,2788.0 L 2005.0,2806.0 L 1996.0,2832.0 L 1993.0,2837.0 L 1994.0,2832.0 L 1998.0,2818.0 L 2003.0,2816.0 L 2008.0,2805.0 L 2017.0,2782.0 L 2020.0,2775.0 L 2017.0,2785.0 L 2001.0,2785.0 L 2010.0,2782.0 L 2013.0,2772.0 L 2020.0,2754.0 L 2016.0,2758.0 L 2023.0,2758.0 L 2029.0,2764.0 L 2023.0,2750.0 L 2023.0,2725.0 L 2025.0,2730.0 L 2026.0,2741.0 L 2022.0,2751.0 L 2027.0,2759.0 L 2030.0,2754.0 L 2029.0,2759.0 L 2026.0,2764.0 L 2023.0,2772.0 L 2015.0,2781.0 L 1992.0,2782.0 L 1990.0,2788.0 L 1982.0,2801.0 L 1978.0,2804.0 L 1974.0,2812.0 L 1980.0,2809.0 L 1990.0,2792.0 L 1994.0,2784.0 L 1998.0,2780.0 L 2005.0,2769.0 L 1999.0,2772.0 L 1996.0,2776.0 L 1983.0,2796.0 L 1979.0,2800.0 L 1978.0,2824.0 L 1972.0,2824.0 L 1974.0,2829.0 L 1980.0,2812.0 L 1989.0,2799.0 L 1996.0,2784.0 L 1997.0,2778.0 L 2007.0,2757.0 L 2009.0,2748.0 L 2013.0,2728.0 L 2023.0,2700.0 L 1999.0,2702.0 L 2000.0,2709.0 L 2002.0,2716.0 L 2002.0,2722.0 L 2003.0,2727.0 L 2003.0,2736.0 L 2005.0,2730.0 L 2009.0,2713.0 L 2018.0,2720.0 L 2005.0,2724.0 L 2005.0,2703.0 L 2009.0,2700.0 L 2025.0,2694.0 L 2045.0,2696.0 L 2023.0,2700.0 L 2029.0,2697.0 L 2046.0,2692.0 L 2050.0,2689.0 L 2050.0,2668.0 L 2051.0,2660.0 L 2074.0,2654.0 L 2080.0,2653.0 L 2107.0,2665.0 L 2111.0,2668.0 L 2123.0,2672.0 L 2134.0,2678.0 L 2112.0,2674.0 L 2105.0,2672.0 L 2101.736044460583,2667.5491515371587" fill="none" stroke="#404040" stroke-width="3.0"/>
	<path d="M 2094.8671147359337,2670.5633769894966 L 2095.0,2671.0 L 2104.0,2674.0 L 2122.0,2679.0 L 2117.0,2680.0 L 2105.0,2677.0 L 2109.0,2669.0 L 2103.0,2665.0 L 2101.0,2660.0 L 2122.0,2670.0 L 2128.0,2672.0 L 2123.0,2673.0 L 2107.0,2671.0 L 2104.398223106221,2667.530964141628" fill="none" stroke="#404040" stroke-width="3.0"/>
	<path d="M 2078.485612754737,2660.9917787169925 L 2082.0,2663.0 L 2088.0,2667.0 L 2092.0,2664.0 L 2088.0,2673.0 L 2094.0,2682.0 L 2081.0,2676.0 L 2078.204964764147,2670.0993700576432" fill="none" stroke="#404040" stroke-width="3.0"/>
	<path d="M 2074.885129623238,2666.557435188381 L 2074.0,2667.0 L 2064.0,2667.0 L 2059.0,2668.0 L 2052.0,2670.0 L 2058.0,2670.0 L 2088.0,2670.0 L 2062.0,2681.0 L 2055.0,2683.0 L 2050.0,2683.0 L 2035.0,2681.0 L 2028.0,2681.0 L 2044.0,2673.0 L 2055.0,2665.0 L 2061.0,2665.0 L 2071.0,2664.0 L 2078.0,2664.0 L 2072.0,2662.0 L 2069.0,2657.0 L 2054.0,2654.0 L 2050.0,2659.0 L 2050.0,2666.0 L 2045.0,2670.0 L 2040.0,2672.0 L 2037.0,2677.0 L 2058.0,2675.0 L 2071.0,2676.0 L 2064.0,2678.0 L 2055.0,2681.0 L 2078.0,2694.0 L 2107.0,2700.0 L 2086.0,2690.0 L 2081.0,2689.0 L 2074.0,2690.0 L 2062.0,2696.0 L 2062.0,2701.0 L 2053.0,2698.0 L 2053.0,2710.0 L 2054.0,2715.0 L 2054.0,2726.0 L 2042.0,2699.0 L 2047.0,2678.0 L 2047.0,2692.0 L 2052.0,2690.0 L 2058.0,2698.0 L 2081.0,2692.0 L 2091.0,2694.0 L 2110.0,2696.0 L 2115.0,2697.0 L 2142.0,2710.0 L 2142.0,2720.0 L 2146.0,2726.0 L 2141.0,2729.0 L 2154.0,2727.0 L 2127.0,2716.0 L 2126.0,2711.0 L 2107.0,2698.0 L 2118.0,2711.0 L 2139.0,2717.0 L 2131.0,2698.0 L 2141.0,2700.0 L 2159.0,2707.0 L 2159.0,2714.0 L 2160.0,2719.0 L 2162.0,2712.0 L 2152.0,2729.0 L 2157.0,2709.0 L 2145.0,2704.0 L 2144.0,2713.0 L 2139.0,2714.0 L 2131.0,2712.0 L 2108.0,2705.0 L 2112.0,2701.0 L 2117.0,2698.0 L 2122.0,2697.0 L 2128.0,2697.0 L 2128.0,2705.0 L 2122.0,2697.0 L 2140.0,2707.0 L 2139.0,2719.0 L 2147.0,2712.0 L 2142.0,2728.0 L 2137.0,2723.0 L 2159.0,2721.0 L 2153.0,2710.0 L 2150.0,2701.0 L 2143.0,2698.0 L 2134.0,2696.0 L 2121.0,2694.0 L 2103.0,2702.0 L 2099.0,2705.0 L 2098.0,2720.0 L 2107.0,2740.0 L 2115.0,2750.0 L 2115.0,2723.0 L 2111.0,2743.0 L 2102.0,2716.0 L 2078.0,2711.0 L 2063.0,2713.0 L 2055.0,2713.0 L 2050.0,2715.0 L 2050.0,2703.0 L 2051.0,2697.0 L 2053.0,2691.0 L 2053.0,2686.0 L 2038.0,2686.0 L 2025.0,2688.0 L 2031.0,2691.0 L 2030.0,2686.0 L 2025.0,2686.0 L 2047.0,2682.0 L 2053.0,2680.0 L 2055.0,2655.0 L 2058.9491643312454,2653.420334267502" fill="none" stroke="#404040" stroke-width="3.0"/>
	<path d="M 2235.531590018389,2663.8228033272035 L 2232.0,2665.0 L 2218.0,2671.0 L 2216.308439749599,2668.462659624399" fill="none" stroke="#404040" stroke-width="3.0"/>
	<path d="M 2219.4593361901607,2667.810742327867 L 2227.0,2672.0 L 2241.0,2674.0 L 2235.0,2670.0 L 2230.0,2670.0 L 2216.0,2663.0 L 2224.6300957681224,2659.3488056365636" fill="none" stroke="#404040" stroke-width="3.0"/>
	<path d="M 2231.8480688589243,2668.739546615299 L 2232.0,2669.0 L 2232.0,2689.0 L 2236.0,2678.0 L 2236.0,2683.0 L 2232.0,2703.0 L 2236.0,2715.0 L 2239.0,2720.0 L 2241.0,2726.0 L 2236.0,2720.0 L 2232.0,2714.0 L 2227.0,2711.0 L 2239.0,2728.0 L 2265.0,2728.0 L 2268.0,2714.0 L 2272.0,2727.0 L 2273.0,2741.0 L 2276.0,2733.0 L 2283.0,2721.0 L 2286.0,2715.0 L 2268.0,2739.0 L 2271.0,2743.0 L 2269.0,2733.0 L 2287.0,2712.0 L 2287.0,2718.0 L 2292.0,2722.0 L 2285.0,2731.0 L 2279.0,2736.0 L 2276.0,2740.0 L 2284.0,2736.0 L 2290.0,2732.0 L 2294.0,2723.0 L 2288.0,2730.0 L 2282.0,2736.0 L 2280.0,2741.0 L 2275.0,2742.0 L 2251.0,2746.0 L 2248.0,2730.0 L 2247.0,2717.0 L 2250.0,2721.0 L 2255.0,2722.0 L 2259.0,2726.0 L 2243.0,2724.0 L 2235.0,2727.0 L 2244.0,2735.0 L 2242.0,2729.0 L 2242.0,2721.0 L 2252.0,2722.0 L 2261.0,2743.0 L 2260.0,2737.0 L 2264.0,2722.0 L 2264.0,2717.0 L 2258.0,2733.0 L 2257.0,2738.0 L 2267.0,2742.0 L 2276.0,2744.0 L 2281.0,2746.0 L 2266.0,2746.0 L 2253.0,2748.0 L 2250.0,2757.0 L 2244.0,2769.0 L 2249.0,2777.0 L 2251.0,2784.0 L 2251.0,2773.0 L 2248.0,2765.0 L 2248.0,2789.0 L 2249.0,2794.0 L 2256.0,2779.0 L 2258.0,2766.0 L 2262.0,2763.0 L 2266.0,2757.0 L 2273.0,2754.0 L 2282.0,2748.0 L 2284.0,2754.0 L 2290.0,2764.0 L 2295.0,2775.0 L 2295.0,2795.0 L 2314.0,2805.0 L 2320.0,2807.0 L 2326.0,2789.0 L 2316.0,2789.0 L 2301.0,2790.0 L 2296.0,2789.0 L 2305.0,2810.0 L 2307.0,2815.0 L 2313.0,2818.0 L 2318.0,2818.0 L 2323.0,2821.0 L 2342.0,2821.0 L 2367.0,2817.0 L 2361.0,2816.0 L 2369.0,2822.0 L 2388.0,2827.0 L 2387.0,2822.0 L 2381.0,2827.0 L 2376.0,2827.0 L 2371.0,2826.0 L 2359.0,2819.0 L 2353.0,2819.0 L 2348.0,2818.0 L 2327.0,2818.0 L 2321.0,2817.0 L 2329.0,2808.0 L 2331.0,2800.0 L 2338.0,2791.0 L 2358.0,2791.0 L 2363.0,2794.0 L 2375.0,2781.0 L 2369.0,2781.0 L 2381.0,2794.0 L 2406.0,2794.0 L 2403.0,2790.0 L 2410.0,2791.0 L 2427.0,2791.0 L 2453.0,2794.0 L 2448.0,2795.0 L 2427.0,2794.0 L 2412.0,2794.0 L 2398.0,2791.0 L 2381.0,2791.0 L 2361.0,2791.0 L 2356.0,2793.0 L 2342.0,2794.0 L 2335.0,2795.0 L 2315.0,2793.0 L 2313.0,2799.0 L 2319.0,2799.0 L 2317.0,2804.0 L 2333.0,2804.0 L 2344.0,2806.0 L 2365.0,2803.0 L 2370.0,2801.0 L 2352.0,2802.0 L 2346.0,2803.0 L 2341.0,2803.0 L 2334.0,2801.0 L 2312.0,2801.0 L 2308.0,2795.0 L 2299.0,2775.0 L 2311.0,2773.0 L 2326.0,2780.0 L 2321.0,2783.0 L 2321.0,2791.0 L 2324.0,2787.0 L 2340.0,2792.0 L 2318.0,2792.0 L 2307.0,2786.0 L 2305.0,2779.0 L 2320.0,2774.0 L 2347.0,2774.0 L 2347.0,2767.0 L 2356.0,2768.0 L 2355.0,2776.0 L 2348.0,2776.0 L 2326.0,2777.0 L 2306.0,2781.0 L 2297.0,2776.0 L 2299.0,2781.0 L 2307.0,2800.0 L 2313.0,2786.0 L 2316.0,2772.0 L 2309.0,2775.0 L 2304.0,2777.0 L 2293.0,2779.0 L 2290.0,2788.0 L 2294.0,2795.0 L 2299.0,2802.0 L 2305.0,2816.0 L 2314.0,2829.0 L 2315.0,2824.0 L 2310.0,2820.0 L 2307.0,2808.0 L 2311.0,2811.0 L 2311.0,2816.0 L 2313.0,2825.0 L 2322.0,2822.0 L 2306.0,2818.0 L 2300.0,2814.0 L 2303.0,2809.0 L 2308.0,2802.0 L 2312.0,2810.0 L 2319.0,2783.0 L 2305.0,2783.0 L 2299.0,2785.0 L 2293.0,2790.0 L 2292.0,2785.0 L 2297.0,2782.0 L 2299.0,2788.0 L 2307.0,2809.0 L 2317.0,2781.0 L 2328.0,2780.0 L 2339.0,2780.0 L 2342.0,2770.0 L 2367.0,2777.0 L 2364.0,2771.0 L 2383.0,2771.0 L 2368.0,2777.0 L 2362.0,2779.0 L 2341.0,2779.0 L 2324.0,2777.0 L 2318.0,2773.0 L 2340.0,2768.0 L 2345.0,2765.0 L 2350.0,2765.0 L 2370.0,2760.0 L 2375.0,2759.0 L 2370.0,2764.0 L 2399.0,2764.0 L 2404.0,2763.0 L 2414.0,2760.0 L 2417.0,2756.0 L 2406.0,2755.0 L 2390.0,2751.0 L 2376.0,2745.0 L 2375.0,2739.0 L 2360.0,2744.0 L 2382.0,2730.0 L 2389.0,2724.0 L 2413.0,2724.0 L 2418.0,2725.0 L 2412.0,2706.0 L 2420.0,2708.0 L 2423.0,2717.0 L 2427.0,2725.0 L 2431.0,2713.0 L 2439.0,2699.0 L 2444.0,2698.0 L 2471.0,2698.0 L 2474.0,2702.0 L 2465.0,2698.0 L 2468.0,2705.0 L 2467.0,2710.0 L 2459.0,2722.0 L 2458.0,2727.0 L 2465.0,2717.0 L 2474.0,2703.0 L 2469.0,2703.0 L 2462.0,2701.0 L 2450.0,2701.0 L 2445.0,2700.0 L 2420.0,2713.0 L 2432.0,2710.0 L 2448.0,2701.0 L 2445.0,2709.0 L 2458.0,2707.0 L 2465.0,2706.0 L 2474.0,2706.0 L 2467.0,2719.0 L 2452.0,2727.0 L 2441.0,2727.0 L 2436.0,2726.0 L 2431.0,2723.0 L 2435.0,2711.0 L 2447.0,2714.0 L 2462.0,2714.0 L 2455.0,2720.0 L 2445.0,2723.0 L 2439.0,2719.0 L 2443.0,2704.0 L 2448.0,2706.0 L 2461.0,2709.0 L 2467.0,2709.0 L 2456.0,2716.0 L 2450.0,2726.0 L 2423.0,2715.0 L 2413.0,2718.0 L 2418.0,2719.0 L 2426.0,2719.0 L 2445.0,2727.0 L 2448.0,2731.0 L 2460.0,2717.0 L 2461.0,2711.0 L 2444.0,2711.0 L 2438.0,2715.0 L 2441.0,2699.0 L 2425.0,2702.0 L 2419.0,2705.0 L 2411.0,2711.0 L 2411.0,2728.0 L 2417.0,2731.0 L 2428.0,2735.0 L 2436.0,2739.0 L 2446.0,2740.0 L 2454.0,2742.0 L 2468.0,2743.0 L 2475.0,2741.0 L 2482.0,2740.0 L 2475.0,2746.0 L 2467.0,2747.0 L 2456.0,2749.0 L 2435.0,2746.0 L 2419.0,2757.0 L 2414.0,2762.0 L 2419.0,2761.0 L 2427.0,2761.0 L 2437.0,2759.0 L 2450.0,2758.0 L 2466.0,2756.0 L 2462.0,2759.0 L 2454.0,2757.0 L 2466.0,2750.0 L 2454.0,2752.0 L 2470.0,2757.0 L 2483.0,2759.0 L 2495.0,2755.0 L 2479.0,2753.0 L 2469.0,2752.0 L 2461.0,2752.0 L 2469.0,2754.0 L 2482.0,2756.0 L 2490.0,2758.0 L 2506.0,2759.0 L 2519.0,2758.0 L 2526.0,2756.0 L 2505.0,2756.0 L 2497.0,2757.0 L 2497.0,2752.0 L 2505.0,2754.0 L 2520.0,2755.0 L 2526.0,2742.0 L 2530.0,2738.0 L 2521.0,2741.0 L 2515.0,2744.0 L 2515.0,2736.0 L 2496.0,2729.0 L 2490.0,2726.0 L 2511.0,2721.0 L 2529.0,2724.0 L 2534.0,2724.0 L 2543.0,2721.0 L 2549.0,2734.0 L 2533.0,2732.0 L 2526.0,2731.0 L 2525.0,2740.0 L 2516.0,2740.0 L 2507.0,2743.0 L 2483.0,2743.0 L 2463.0,2745.0 L 2457.0,2747.0 L 2444.0,2752.0 L 2435.0,2755.0 L 2424.0,2755.0 L 2395.0,2751.0 L 2412.0,2751.0 L 2425.0,2752.0 L 2431.0,2752.0 L 2439.0,2751.0 L 2449.0,2747.0 L 2461.0,2743.0 L 2450.0,2744.0 L 2429.0,2744.0 L 2422.0,2743.0 L 2405.0,2738.0 L 2376.0,2741.0 L 2366.0,2745.0 L 2348.0,2751.0 L 2352.0,2747.0 L 2358.0,2743.0 L 2352.0,2757.0 L 2374.0,2747.0 L 2392.0,2754.0 L 2409.0,2758.0 L 2425.0,2758.0 L 2449.0,2755.0 L 2455.0,2754.0 L 2455.0,2769.0 L 2458.0,2773.0 L 2459.0,2780.0 L 2479.0,2775.0 L 2464.0,2776.0 L 2454.0,2776.0 L 2433.0,2767.0 L 2462.0,2767.0 L 2485.0,2767.0 L 2496.0,2767.0 L 2504.0,2768.0 L 2500.0,2777.0 L 2495.0,2776.0 L 2506.0,2776.0 L 2529.0,2775.0 L 2524.0,2777.0 L 2503.0,2779.0 L 2503.0,2768.0 L 2517.0,2767.0 L 2501.0,2766.0 L 2496.0,2764.0 L 2466.0,2764.0 L 2458.0,2764.0 L 2444.0,2769.0 L 2437.0,2770.0 L 2432.0,2770.0 L 2406.0,2770.0 L 2384.0,2770.0 L 2377.0,2769.0 L 2370.0,2772.0 L 2379.0,2778.0 L 2406.0,2776.0 L 2411.0,2776.0 L 2422.0,2773.0 L 2403.0,2772.0 L 2408.0,2774.0 L 2387.0,2772.0 L 2376.0,2776.0 L 2355.0,2771.0 L 2350.0,2769.0 L 2343.0,2771.0 L 2338.0,2771.0 L 2332.0,2773.0 L 2334.0,2768.0 L 2352.0,2759.0 L 2349.0,2755.0 L 2346.0,2760.0 L 2337.0,2764.0 L 2330.0,2759.0 L 2329.0,2754.0 L 2333.0,2750.0 L 2338.0,2747.0 L 2332.0,2745.0 L 2326.0,2746.0 L 2313.0,2749.0 L 2316.0,2756.0 L 2318.0,2764.0 L 2337.0,2742.0 L 2346.0,2740.0 L 2362.0,2737.0 L 2360.0,2745.0 L 2362.0,2751.0 L 2367.0,2759.0 L 2375.0,2749.0 L 2355.0,2759.0 L 2358.0,2752.0 L 2350.0,2752.0 L 2349.0,2763.0 L 2361.0,2759.0 L 2366.0,2758.0 L 2386.0,2748.0 L 2380.0,2744.0 L 2376.0,2740.0 L 2391.0,2735.0 L 2399.0,2733.0 L 2405.0,2739.0 L 2410.0,2742.0 L 2414.0,2746.0 L 2409.0,2759.0 L 2399.0,2761.0 L 2375.0,2761.0 L 2368.0,2765.0 L 2372.0,2762.0 L 2352.0,2767.0 L 2355.0,2752.0 L 2378.0,2743.0 L 2407.0,2743.0 L 2415.0,2743.0 L 2420.0,2741.0 L 2441.0,2741.0 L 2446.0,2742.0 L 2446.0,2757.0 L 2437.0,2762.0 L 2430.0,2761.0 L 2434.0,2749.0 L 2429.0,2731.0 L 2434.0,2724.0 L 2436.0,2716.0 L 2419.0,2713.0 L 2408.0,2715.0 L 2409.0,2720.0 L 2414.0,2721.0 L 2423.0,2722.0 L 2419.0,2726.0 L 2406.0,2727.0 L 2382.0,2727.0 L 2378.0,2730.0 L 2365.0,2738.0 L 2359.0,2725.0 L 2355.0,2714.0 L 2351.0,2717.0 L 2361.0,2711.0 L 2384.0,2695.0 L 2387.0,2702.0 L 2389.0,2696.0 L 2407.0,2691.0 L 2381.0,2705.0 L 2358.0,2724.0 L 2374.0,2717.0 L 2377.0,2713.0 L 2368.0,2718.0 L 2373.0,2714.0 L 2392.0,2701.0 L 2394.0,2691.0 L 2411.0,2687.0 L 2389.0,2683.0 L 2384.0,2686.0 L 2383.0,2692.0 L 2388.0,2689.0 L 2389.0,2684.0 L 2384.0,2692.0 L 2363.0,2707.0 L 2377.0,2694.0 L 2375.0,2699.0 L 2371.0,2705.0 L 2363.0,2713.0 L 2361.0,2707.0 L 2354.0,2694.0 L 2352.0,2687.0 L 2372.0,2685.0 L 2368.0,2690.0 L 2365.0,2695.0 L 2357.0,2706.0 L 2340.0,2720.0 L 2334.0,2724.0 L 2338.0,2718.0 L 2345.0,2713.0 L 2349.0,2708.0 L 2361.0,2691.0 L 2367.0,2687.0 L 2364.0,2693.0 L 2349.0,2711.0 L 2344.0,2705.0 L 2346.0,2700.0 L 2354.0,2685.0 L 2356.0,2680.0 L 2359.0,2666.0 L 2387.0,2675.0 L 2384.0,2671.0 L 2380.0,2668.0 L 2375.0,2667.0 L 2370.0,2663.0 L 2364.0,2661.0 L 2352.0,2683.0 L 2343.0,2700.0 L 2340.0,2705.0 L 2341.0,2700.0 L 2338.0,2696.0 L 2338.0,2690.0 L 2339.0,2681.0 L 2355.0,2684.0 L 2362.0,2687.0 L 2361.0,2693.0 L 2356.0,2703.0 L 2358.0,2709.0 L 2364.0,2721.0 L 2378.0,2734.0 L 2386.0,2730.0 L 2394.0,2729.0 L 2402.0,2732.0 L 2404.0,2741.0 L 2392.0,2741.0 L 2388.0,2737.0 L 2399.0,2736.0 L 2410.0,2737.0 L 2420.0,2739.0 L 2429.0,2738.0 L 2417.0,2733.0 L 2408.0,2729.0 L 2395.0,2731.0 L 2382.0,2735.0 L 2376.0,2737.0 L 2364.0,2740.0 L 2346.0,2742.0 L 2341.0,2747.0 L 2330.0,2756.0 L 2324.0,2759.0 L 2319.0,2758.0 L 2305.0,2758.0 L 2307.0,2749.0 L 2313.0,2736.0 L 2314.0,2730.0 L 2335.0,2719.0 L 2332.0,2723.0 L 2316.0,2734.0 L 2322.0,2732.0 L 2333.0,2725.0 L 2328.0,2725.0 L 2320.0,2729.0 L 2316.0,2732.0 L 2298.0,2749.0 L 2304.0,2746.0 L 2310.0,2740.0 L 2321.0,2734.0 L 2316.0,2739.0 L 2310.0,2744.0 L 2298.0,2753.0 L 2305.0,2753.0 L 2320.0,2750.0 L 2326.0,2749.0 L 2346.0,2744.0 L 2354.0,2743.0 L 2324.0,2743.0 L 2319.0,2746.0 L 2314.0,2762.0 L 2313.0,2754.0 L 2297.0,2759.0 L 2290.0,2762.0 L 2287.0,2767.0 L 2282.0,2770.0 L 2279.0,2774.0 L 2273.0,2764.0 L 2268.0,2752.0 L 2265.0,2748.0 L 2271.0,2749.0 L 2277.0,2751.0 L 2279.0,2756.0 L 2274.0,2762.0 L 2270.0,2750.0 L 2275.0,2748.0 L 2275.0,2769.0 L 2276.0,2774.0 L 2287.0,2760.0 L 2291.0,2757.0 L 2292.0,2749.0 L 2291.0,2744.0 L 2284.0,2771.0 L 2284.0,2766.0 L 2291.0,2759.0 L 2299.0,2756.0 L 2309.0,2752.0 L 2292.0,2748.0 L 2287.0,2749.0 L 2285.0,2754.0 L 2280.0,2747.0 L 2272.0,2752.0 L 2264.0,2758.0 L 2259.0,2757.0 L 2249.0,2751.0 L 2245.0,2727.0 L 2245.0,2703.0 L 2246.0,2698.0 L 2265.0,2675.0 L 2264.0,2681.0 L 2252.0,2683.0 L 2254.0,2678.0 L 2253.0,2671.0 L 2252.349830106631,2668.3993204265253" fill="none" stroke="#404040" stroke-width="3.0"/>
	<path d="M 2248.0,2670.0735352332936 L 2248.0,2684.0 L 2248.0,2705.0 L 2248.0,2716.0 L 2250.0,2710.0 L 2243.0,2710.0 L 2221.0,2713.0 L 2221.0,2706.0 L 2225.0,2703.0 L 2224.0,2698.0 L 2228.0,2687.0 L 2231.0,2692.0 L 2231.0,2697.0 L 2236.0,2707.0 L 2214.0,2705.0 L 2219.0,2703.0 L 2228.0,2702.0 L 2223.0,2701.0 L 2199.0,2701.0 L 2194.0,2699.0 L 2171.0,2695.0 L 2197.0,2693.0 L 2210.0,2696.0 L 2223.0,2700.0 L 2233.0,2709.0 L 2220.0,2709.0 L 2201.0,2693.0 L 2204.0,2684.0 L 2200.0,2687.0 L 2199.0,2692.0 L 2191.0,2693.0 L 2185.0,2696.0 L 2198.0,2696.0 L 2206.0,2699.0 L 2214.0,2699.0 L 2234.0,2690.0 L 2229.0,2681.0 L 2224.0,2678.0 L 2229.0,2678.0 L 2237.0,2679.0 L 2242.0,2693.0 L 2244.0,2698.0 L 2245.0,2693.0 L 2245.0,2682.0 L 2246.0,2677.0 L 2225.0,2675.0 L 2220.0,2674.0 L 2225.0,2672.0 L 2234.0,2667.0 L 2244.0,2663.0 L 2241.0,2676.0 L 2237.0,2688.0 L 2243.0,2689.0 L 2255.0,2685.0 L 2266.0,2683.0 L 2268.0,2675.0 L 2269.0,2669.0 L 2272.0,2658.0 L 2277.0,2670.0 L 2273.0,2665.0 L 2264.0,2660.0 L 2263.0,2655.0 L 2268.0,2656.0 L 2274.0,2671.0 L 2273.0,2676.0 L 2269.0,2666.0 L 2265.0,2654.0 L 2258.0,2666.0 L 2255.0,2683.0 L 2260.0,2677.0 L 2270.0,2676.0 L 2281.0,2676.0 L 2306.0,2676.0 L 2291.0,2667.0 L 2280.0,2671.0 L 2275.0,2673.0 L 2284.0,2673.0 L 2292.0,2675.0 L 2304.0,2671.0 L 2293.0,2665.0 L 2296.0,2669.0 L 2297.0,2684.0 L 2278.0,2682.0 L 2289.0,2682.0 L 2319.0,2682.0 L 2317.0,2676.0 L 2316.0,2667.0 L 2323.0,2677.0 L 2328.0,2682.0 L 2330.0,2687.0 L 2318.0,2686.0 L 2314.0,2683.0 L 2314.0,2667.0 L 2312.0,2673.0 L 2322.0,2676.0 L 2330.0,2678.0 L 2335.0,2676.0 L 2345.0,2674.0 L 2354.0,2655.0 L 2350.0,2659.0 L 2348.0,2667.0 L 2345.0,2677.0 L 2338.0,2673.0 L 2338.0,2678.0 L 2335.0,2689.0 L 2335.0,2694.0 L 2336.0,2699.0 L 2345.0,2679.0 L 2326.0,2674.0 L 2326.0,2685.0 L 2331.0,2680.0 L 2322.0,2678.0 L 2311.0,2680.0 L 2302.0,2679.0 L 2272.0,2679.0 L 2277.0,2681.0 L 2259.0,2672.0 L 2255.0,2665.0 L 2245.0,2666.0 L 2245.0,2656.0 L 2250.0,2655.0 L 2258.0,2666.0 L 2261.0,2671.0 L 2259.0,2677.0 L 2259.0,2682.0 L 2257.0,2687.0 L 2251.0,2690.0 L 2251.0,2666.0 L 2252.0,2661.0 L 2255.0,2669.0 L 2258.0,2675.0 L 2244.0,2668.0 L 2237.0,2666.0 L 2229.0,2660.0 L 2220.0,2653.0 L 2229.7616767279674,2657.8808383639835" fill="none" stroke="#404040" stroke-width="3.0"/>
	<path d="M 2572.889659496251,2655.1779318992503 L 2572.0,2655.0 L 2547.0,2657.0 L 2550.4340777621856,2655.626368895126" fill="none" stroke="#404040" stroke-width="3.0"/>
	<path d="M 2591.326447917465,2657.938841666028 L 2585.0,2663.0 L 2578.0,2668.0 L 2585.0,2668.0 L 2590.0,2666.0 L 2588.0,2660.0 L 2596.0,2659.0 L 2601.0,2659.0 L 2630.0,2653.0 L 2643.074327006152,2651.692567299385" fill="none" stroke="#404040" stroke-width="3.0"/>
	<path d="M 2703.5053429280106,2650.0 L 2701.4946570718203,2650.0" fill="none" stroke="#404040" stroke-width="3.0"/>
	<path d="M 2834.3406946885607,2663.3167566364664 L 2819.0,2657.0 L 2824.0,2656.0 L 2840.0,2654.0 L 2848.0,2652.0 L 2858.0,2654.0 L 2866.0,2656.0 L 2892.0,2669.0 L 2885.0,2668.0 L 2874.0,2664.0 L 2869.0,2665.0 L 2864.0,2665.0 L 2858.0,2664.0 L 2839.0,2664.0 L 2843.7049993719347,2665.0455554159853" fill="none" stroke="#404040" stroke-width="3.0"/>
	<path d="M 2956.2012095270043,2660.000465202694 L 2951.0,2658.0 L 2942.0,2653.0 L 2932.0,2653.0 L 2935.0,2657.0 L 2960.0,2657.0 L 2959.0,2652.0 L 2954.0,2654.0 L 2949.0,2656.0 L 2932.0,2665.0 L 2938.0,2666.0 L 2949.0,2665.0 L 2952.7426243425243,2665.0" fill="none" stroke="#404040" stroke-width="3.0"/>
	<path d="M 2964.284066855015,2671.1535654424006 L 2964.0,2673.0 L 2964.0,2687.0 L 2962.0,2682.0 L 2955.0,2659.0 L 2955.0,2664.0 L 2958.0,2683.0 L 2948.0,2680.0 L 2933.0,2677.0 L 2942.0,2691.0 L 2920.0,2696.0 L 2912.0,2698.0 L 2940.0,2698.0 L 2970.0,2698.0 L 2967.0,2682.0 L 2962.0,2697.0 L 2957.0,2695.0 L 2950.0,2695.0 L 2946.0,2692.0 L 2955.0,2692.0 L 2961.0,2693.0 L 2956.0,2691.0 L 2962.0,2691.0 L 2967.0,2694.0 L 2967.0,2677.0 L 2962.0,2676.0 L 2953.0,2680.0 L 2945.0,2683.0 L 2935.0,2685.0 L 2923.0,2686.0 L 2913.0,2686.0 L 2935.0,2678.0 L 2940.0,2674.0 L 2960.0,2674.0 L 2969.0,2670.0 L 2968.0,2675.0 L 2957.0,2668.0 L 2953.0,2665.0 L 2947.0,2662.0 L 2944.0,2658.0 L 2952.0,2661.0 L 2953.0,2670.0 L 2955.0,2675.0 L 2959.0,2681.0 L 2968.0,2702.0 L 2959.0,2701.0 L 2944.0,2701.0 L 2919.0,2701.0 L 2922.0,2706.0 L 2945.0,2705.0 L 2955.0,2707.0 L 2962.0,2704.0 L 2969.0,2704.0 L 2957.0,2709.0 L 2950.0,2717.0 L 2942.0,2727.0 L 2946.0,2730.0 L 2951.0,2732.0 L 2952.0,2739.0 L 2962.0,2739.0 L 2965.0,2743.0 L 2965.0,2732.0 L 2968.0,2718.0 L 2952.0,2718.0 L 2938.0,2722.0 L 2933.0,2722.0 L 2925.0,2723.0 L 2909.0,2723.0 L 2914.0,2725.0 L 2927.0,2728.0 L 2934.0,2729.0 L 2938.0,2725.0 L 2953.0,2720.0 L 2943.0,2716.0 L 2936.0,2714.0 L 2927.0,2717.0 L 2933.0,2733.0 L 2925.0,2735.0 L 2905.0,2726.0 L 2897.0,2726.0 L 2902.0,2721.0 L 2907.0,2721.0 L 2919.0,2720.0 L 2933.0,2717.0 L 2945.0,2717.0 L 2940.0,2719.0 L 2931.0,2720.0 L 2922.0,2726.0 L 2921.0,2734.0 L 2916.0,2734.0 L 2906.0,2729.0 L 2901.0,2727.0 L 2889.0,2721.0 L 2901.0,2718.0 L 2917.0,2718.0 L 2922.0,2720.0 L 2944.0,2731.0 L 2936.0,2730.0 L 2923.0,2731.0 L 2951.0,2741.0 L 2949.0,2736.0 L 2961.0,2736.0 L 2967.0,2733.0 L 2942.0,2733.0 L 2935.0,2733.0 L 2947.0,2736.0 L 2951.0,2739.0 L 2967.0,2744.0 L 2969.0,2727.0 L 2970.0,2720.0 L 2959.0,2721.0 L 2945.0,2725.0 L 2957.0,2727.0 L 2957.0,2720.0 L 2961.0,2723.0 L 2973.0,2725.0 L 2969.0,2730.0 L 2963.0,2732.0 L 2963.0,2722.0 L 2962.0,2716.0 L 2957.0,2715.0 L 2960.0,2726.0 L 2961.0,2731.0 L 2951.0,2729.0 L 2932.0,2724.0 L 2914.0,2731.0 L 2909.0,2732.0 L 2888.0,2726.0 L 2882.0,2724.0 L 2875.0,2724.0 L 2845.0,2724.0 L 2851.0,2727.0 L 2881.0,2727.0 L 2888.0,2729.0 L 2898.0,2732.0 L 2915.0,2736.0 L 2920.0,2737.0 L 2946.0,2737.0 L 2954.0,2734.0 L 2954.0,2712.0 L 2959.0,2704.0 L 2952.0,2704.0 L 2925.0,2703.0 L 2918.0,2701.0 L 2898.0,2696.0 L 2883.0,2701.0 L 2877.0,2704.0 L 2849.0,2704.0 L 2831.0,2704.0 L 2825.0,2701.0 L 2820.0,2703.0 L 2825.0,2701.0 L 2844.0,2701.0 L 2865.0,2701.0 L 2866.0,2694.0 L 2861.0,2695.0 L 2856.0,2695.0 L 2844.0,2698.0 L 2829.0,2698.0 L 2822.0,2700.0 L 2807.0,2700.0 L 2801.0,2701.0 L 2774.0,2704.0 L 2761.0,2705.0 L 2752.0,2707.0 L 2725.0,2710.0 L 2720.0,2711.0 L 2704.0,2711.0 L 2705.0,2706.0 L 2708.0,2699.0 L 2724.0,2701.0 L 2732.0,2703.0 L 2737.0,2705.0 L 2732.0,2707.0 L 2725.0,2707.0 L 2711.0,2709.0 L 2706.0,2710.0 L 2681.0,2715.0 L 2672.0,2716.0 L 2642.0,2716.0 L 2637.0,2715.0 L 2632.0,2713.0 L 2608.0,2713.0 L 2619.0,2709.0 L 2633.0,2705.0 L 2638.0,2704.0 L 2650.0,2704.0 L 2656.0,2702.0 L 2652.0,2710.0 L 2646.0,2706.0 L 2628.0,2708.0 L 2636.0,2713.0 L 2664.0,2713.0 L 2669.0,2713.0 L 2674.0,2711.0 L 2703.0,2706.0 L 2681.0,2706.0 L 2675.0,2704.0 L 2668.0,2707.0 L 2653.0,2711.0 L 2667.0,2710.0 L 2676.0,2709.0 L 2669.0,2713.0 L 2679.0,2713.0 L 2699.0,2709.0 L 2712.0,2706.0 L 2727.0,2704.0 L 2741.0,2704.0 L 2753.0,2702.0 L 2761.0,2700.0 L 2786.0,2697.0 L 2790.0,2691.0 L 2791.0,2686.0 L 2785.0,2685.0 L 2778.0,2681.0 L 2792.0,2680.0 L 2795.0,2675.0 L 2801.0,2673.0 L 2773.0,2676.0 L 2766.0,2676.0 L 2768.0,2665.0 L 2769.0,2651.0 L 2775.0,2654.0 L 2784.0,2657.0 L 2791.0,2660.0 L 2796.0,2663.0 L 2789.0,2665.0 L 2790.0,2671.0 L 2761.0,2671.0 L 2755.0,2671.0 L 2750.0,2672.0 L 2758.0,2675.0 L 2772.0,2679.0 L 2777.0,2681.0 L 2768.0,2680.0 L 2758.0,2678.0 L 2749.0,2677.0 L 2761.0,2692.0 L 2764.0,2697.0 L 2759.0,2698.0 L 2732.0,2698.0 L 2752.0,2694.0 L 2767.0,2692.0 L 2785.0,2697.0 L 2795.0,2697.0 L 2800.0,2695.0 L 2805.0,2694.0 L 2811.0,2694.0 L 2835.0,2695.0 L 2844.0,2697.0 L 2868.0,2701.0 L 2877.0,2702.0 L 2889.0,2705.0 L 2897.0,2706.0 L 2888.0,2702.0 L 2883.0,2699.0 L 2864.0,2699.0 L 2849.0,2694.0 L 2836.0,2695.0 L 2825.0,2697.0 L 2807.0,2697.0 L 2802.0,2696.0 L 2792.0,2693.0 L 2780.0,2691.0 L 2779.0,2696.0 L 2782.0,2707.0 L 2786.0,2712.0 L 2798.0,2715.0 L 2807.0,2721.0 L 2803.0,2724.0 L 2817.0,2722.0 L 2833.0,2726.0 L 2819.0,2729.0 L 2814.0,2731.0 L 2804.0,2733.0 L 2809.0,2734.0 L 2822.0,2734.0 L 2828.0,2735.0 L 2833.0,2735.0 L 2829.0,2732.0 L 2824.0,2729.0 L 2809.0,2718.0 L 2827.0,2715.0 L 2837.0,2714.0 L 2850.0,2718.0 L 2855.0,2720.0 L 2838.0,2719.0 L 2833.0,2717.0 L 2838.0,2717.0 L 2856.0,2715.0 L 2861.0,2713.0 L 2842.0,2713.0 L 2826.0,2712.0 L 2813.0,2711.0 L 2792.0,2713.0 L 2787.0,2715.0 L 2769.0,2716.0 L 2780.0,2719.0 L 2794.0,2721.0 L 2801.0,2724.0 L 2811.0,2726.0 L 2816.0,2726.0 L 2825.0,2727.0 L 2833.0,2731.0 L 2841.0,2732.0 L 2832.0,2729.0 L 2834.0,2734.0 L 2846.0,2734.0 L 2862.0,2735.0 L 2834.0,2727.0 L 2851.0,2722.0 L 2858.0,2721.0 L 2881.0,2721.0 L 2886.0,2722.0 L 2897.0,2722.0 L 2909.0,2725.0 L 2917.0,2730.0 L 2914.0,2725.0 L 2889.0,2717.0 L 2889.0,2724.0 L 2891.0,2734.0 L 2865.0,2734.0 L 2860.0,2733.0 L 2879.0,2737.0 L 2884.0,2724.0 L 2885.0,2719.0 L 2880.0,2718.0 L 2856.0,2718.0 L 2866.0,2715.0 L 2884.0,2716.0 L 2889.0,2716.0 L 2884.0,2715.0 L 2888.0,2720.0 L 2900.0,2732.0 L 2904.0,2737.0 L 2888.0,2732.0 L 2879.0,2730.0 L 2851.0,2730.0 L 2843.0,2732.0 L 2839.0,2735.0 L 2829.0,2738.0 L 2819.0,2736.0 L 2815.0,2728.0 L 2805.0,2716.0 L 2807.0,2709.0 L 2819.0,2710.0 L 2831.0,2709.0 L 2831.0,2724.0 L 2832.0,2734.0 L 2804.0,2727.0 L 2776.0,2725.0 L 2782.0,2723.0 L 2798.0,2723.0 L 2805.0,2721.0 L 2789.0,2718.0 L 2782.0,2721.0 L 2767.0,2727.0 L 2755.0,2726.0 L 2733.0,2725.0 L 2723.0,2721.0 L 2709.0,2724.0 L 2701.0,2727.0 L 2708.0,2727.0 L 2730.0,2725.0 L 2738.0,2723.0 L 2757.0,2723.0 L 2764.0,2722.0 L 2758.0,2723.0 L 2745.0,2719.0 L 2773.0,2718.0 L 2785.0,2717.0 L 2791.0,2716.0 L 2797.0,2717.0 L 2809.0,2717.0 L 2833.0,2723.0 L 2841.0,2726.0 L 2856.0,2731.0 L 2878.0,2732.0 L 2872.0,2715.0 L 2868.0,2712.0 L 2861.0,2714.0 L 2843.0,2723.0 L 2821.0,2717.0 L 2830.0,2716.0 L 2823.0,2714.0 L 2803.0,2714.0 L 2796.0,2716.0 L 2798.0,2725.0 L 2801.0,2731.0 L 2804.0,2735.0 L 2796.0,2734.0 L 2791.0,2732.0 L 2786.0,2732.0 L 2773.0,2729.0 L 2755.0,2729.0 L 2742.0,2731.0 L 2726.0,2731.0 L 2709.0,2731.0 L 2696.0,2732.0 L 2684.0,2734.0 L 2674.0,2734.0 L 2657.0,2738.0 L 2659.0,2749.0 L 2672.0,2749.0 L 2664.0,2751.0 L 2679.0,2753.0 L 2688.0,2752.0 L 2670.0,2749.0 L 2675.0,2748.0 L 2698.0,2750.0 L 2703.0,2747.0 L 2708.0,2750.0 L 2691.0,2754.0 L 2694.0,2746.0 L 2686.0,2737.0 L 2692.0,2735.0 L 2697.0,2734.0 L 2721.0,2734.0 L 2736.0,2734.0 L 2754.0,2732.0 L 2763.0,2732.0 L 2771.0,2731.0 L 2783.0,2734.0 L 2788.0,2735.0 L 2796.0,2732.0 L 2803.0,2731.0 L 2808.0,2729.0 L 2787.0,2729.0 L 2779.0,2728.0 L 2779.0,2734.0 L 2767.0,2734.0 L 2750.0,2735.0 L 2735.0,2737.0 L 2729.0,2737.0 L 2699.0,2737.0 L 2687.0,2737.0 L 2663.0,2737.0 L 2670.0,2734.0 L 2692.0,2730.0 L 2721.0,2728.0 L 2750.0,2728.0 L 2773.0,2722.0 L 2779.0,2720.0 L 2765.0,2721.0 L 2748.0,2720.0 L 2743.0,2720.0 L 2721.0,2724.0 L 2699.0,2725.0 L 2677.0,2725.0 L 2683.0,2728.0 L 2698.0,2728.0 L 2703.0,2728.0 L 2694.0,2730.0 L 2678.0,2730.0 L 2673.0,2731.0 L 2657.0,2736.0 L 2645.0,2738.0 L 2618.0,2738.0 L 2604.0,2737.0 L 2599.0,2735.0 L 2584.0,2734.0 L 2569.0,2733.0 L 2557.0,2741.0 L 2578.0,2740.0 L 2608.0,2740.0 L 2624.0,2740.0 L 2629.0,2747.0 L 2621.0,2752.0 L 2614.0,2754.0 L 2609.0,2760.0 L 2607.0,2765.0 L 2602.0,2761.0 L 2587.0,2762.0 L 2580.0,2764.0 L 2585.0,2765.0 L 2606.0,2763.0 L 2600.0,2765.0 L 2605.0,2761.0 L 2624.0,2748.0 L 2614.0,2749.0 L 2600.0,2751.0 L 2607.0,2753.0 L 2612.0,2752.0 L 2636.0,2748.0 L 2628.0,2753.0 L 2626.0,2732.0 L 2625.0,2727.0 L 2642.0,2726.0 L 2649.0,2727.0 L 2654.0,2727.0 L 2676.0,2724.0 L 2666.0,2729.0 L 2653.0,2732.0 L 2624.0,2732.0 L 2594.0,2732.0 L 2581.0,2735.0 L 2573.0,2736.0 L 2566.0,2738.0 L 2565.0,2732.0 L 2565.0,2725.0 L 2582.0,2725.0 L 2598.0,2727.0 L 2622.0,2729.0 L 2651.0,2729.0 L 2656.0,2729.0 L 2675.0,2727.0 L 2680.0,2727.0 L 2658.0,2733.0 L 2653.0,2734.0 L 2646.0,2735.0 L 2616.0,2735.0 L 2606.0,2735.0 L 2600.0,2734.0 L 2617.0,2729.0 L 2622.0,2727.0 L 2617.0,2726.0 L 2604.0,2730.0 L 2584.0,2728.0 L 2579.0,2728.0 L 2570.0,2727.0 L 2564.0,2725.0 L 2543.0,2724.0 L 2538.0,2725.0 L 2549.0,2727.0 L 2567.0,2731.0 L 2592.0,2731.0 L 2602.0,2737.0 L 2586.0,2737.0 L 2564.0,2739.0 L 2540.0,2739.0 L 2532.0,2739.0 L 2536.0,2735.0 L 2514.0,2730.0 L 2507.0,2728.0 L 2513.0,2729.0 L 2530.0,2729.0 L 2541.0,2731.0 L 2563.0,2735.0 L 2554.0,2740.0 L 2538.0,2743.0 L 2538.0,2735.0 L 2537.0,2727.0 L 2537.0,2721.0 L 2524.0,2722.0 L 2503.0,2725.0 L 2493.0,2728.0 L 2485.0,2728.0 L 2513.0,2738.0 L 2496.0,2741.0 L 2491.0,2742.0 L 2478.0,2738.0 L 2483.0,2736.0 L 2483.0,2729.0 L 2480.0,2725.0 L 2486.0,2715.0 L 2499.0,2715.0 L 2518.0,2712.0 L 2501.0,2710.0 L 2501.0,2703.0 L 2504.0,2689.0 L 2496.0,2685.0 L 2482.0,2682.0 L 2479.0,2677.0 L 2479.0,2687.0 L 2482.0,2698.0 L 2497.0,2698.0 L 2504.0,2705.0 L 2504.0,2700.0 L 2509.0,2701.0 L 2514.0,2704.0 L 2521.0,2706.0 L 2529.0,2709.0 L 2501.0,2709.0 L 2506.0,2706.0 L 2516.0,2702.0 L 2522.0,2702.0 L 2527.0,2703.0 L 2534.0,2701.0 L 2541.0,2700.0 L 2530.0,2705.0 L 2523.0,2705.0 L 2509.0,2707.0 L 2515.0,2699.0 L 2500.0,2690.0 L 2500.0,2695.0 L 2498.0,2702.0 L 2498.0,2713.0 L 2524.0,2713.0 L 2554.0,2713.0 L 2583.0,2713.0 L 2591.0,2712.0 L 2607.0,2711.0 L 2613.0,2709.0 L 2620.0,2706.0 L 2628.0,2704.0 L 2634.0,2702.0 L 2627.0,2700.0 L 2618.0,2699.0 L 2613.0,2699.0 L 2606.0,2700.0 L 2598.0,2700.0 L 2578.0,2705.0 L 2591.0,2705.0 L 2612.0,2702.0 L 2626.0,2702.0 L 2635.0,2701.0 L 2656.0,2701.0 L 2674.0,2700.0 L 2680.0,2708.0 L 2670.0,2706.0 L 2665.0,2706.0 L 2659.0,2707.0 L 2652.0,2709.0 L 2639.0,2712.0 L 2626.0,2716.0 L 2603.0,2716.0 L 2584.0,2710.0 L 2579.0,2710.0 L 2549.0,2710.0 L 2528.0,2710.0 L 2521.0,2711.0 L 2526.0,2706.0 L 2531.0,2707.0 L 2544.0,2701.0 L 2567.0,2701.0 L 2573.0,2700.0 L 2581.0,2703.0 L 2569.0,2703.0 L 2576.0,2701.0 L 2596.0,2701.0 L 2610.0,2705.0 L 2618.0,2705.0 L 2606.0,2709.0 L 2589.0,2709.0 L 2580.0,2707.0 L 2560.0,2702.0 L 2540.0,2705.0 L 2532.0,2707.0 L 2557.0,2707.0 L 2573.0,2707.0 L 2578.0,2709.0 L 2574.0,2716.0 L 2552.0,2716.0 L 2555.0,2726.0 L 2573.0,2730.0 L 2571.0,2735.0 L 2551.0,2730.0 L 2528.0,2726.0 L 2515.0,2726.0 L 2499.0,2728.0 L 2512.0,2732.0 L 2527.0,2736.0 L 2557.0,2736.0 L 2557.0,2741.0 L 2553.0,2744.0 L 2542.0,2757.0 L 2523.0,2753.0 L 2528.0,2752.0 L 2550.0,2752.0 L 2576.0,2755.0 L 2571.0,2756.0 L 2545.0,2755.0 L 2535.0,2755.0 L 2536.0,2742.0 L 2529.0,2740.0 L 2514.0,2735.0 L 2502.0,2737.0 L 2492.0,2739.0 L 2479.0,2736.0 L 2483.0,2727.0 L 2486.0,2717.0 L 2489.0,2711.0 L 2486.0,2730.0 L 2510.0,2741.0 L 2504.0,2740.0 L 2486.0,2734.0 L 2487.0,2729.0 L 2491.0,2719.0 L 2491.0,2709.0 L 2490.0,2702.0 L 2483.0,2685.0 L 2462.0,2675.0 L 2456.0,2673.0 L 2470.0,2684.0 L 2473.0,2690.0 L 2470.0,2685.0 L 2475.0,2684.0 L 2467.0,2680.0 L 2463.0,2675.0 L 2459.0,2672.0 L 2458.0,2667.0 L 2452.0,2661.0 L 2470.0,2664.0 L 2475.0,2665.0 L 2505.0,2665.0 L 2513.0,2665.0 L 2531.0,2668.0 L 2556.0,2678.0 L 2548.0,2677.0 L 2533.0,2672.0 L 2527.0,2672.0 L 2520.0,2674.0 L 2513.0,2688.0 L 2511.0,2694.0 L 2528.0,2698.0 L 2545.0,2698.0 L 2568.0,2698.0 L 2595.0,2698.0 L 2614.0,2697.0 L 2610.0,2700.0 L 2592.0,2703.0 L 2587.0,2706.0 L 2608.0,2706.0 L 2607.0,2713.0 L 2597.0,2713.0 L 2574.0,2717.0 L 2568.0,2707.0 L 2562.0,2705.0 L 2548.0,2704.0 L 2521.0,2699.0 L 2516.0,2699.0 L 2518.0,2694.0 L 2514.0,2697.0 L 2511.0,2693.0 L 2514.0,2689.0 L 2519.0,2689.0 L 2519.0,2671.0 L 2529.0,2669.0 L 2536.0,2667.0 L 2548.0,2665.0 L 2578.0,2665.0 L 2588.0,2664.0 L 2582.0,2668.0 L 2569.0,2683.0 L 2598.0,2683.0 L 2612.0,2683.0 L 2631.0,2693.0 L 2622.0,2692.0 L 2610.0,2689.0 L 2582.0,2689.0 L 2552.0,2689.0 L 2539.0,2689.0 L 2525.0,2687.0 L 2499.0,2687.0 L 2496.0,2696.0 L 2489.0,2694.0 L 2476.0,2668.0 L 2476.0,2677.0 L 2472.0,2692.0 L 2482.0,2692.0 L 2490.0,2691.0 L 2495.0,2691.0 L 2495.0,2714.0 L 2494.0,2720.0 L 2491.0,2692.0 L 2497.0,2695.0 L 2508.0,2698.0 L 2513.0,2700.0 L 2491.0,2711.0 L 2480.0,2684.0 L 2490.0,2679.0 L 2512.0,2682.0 L 2499.0,2685.0 L 2489.0,2689.0 L 2484.0,2674.0 L 2480.0,2668.0 L 2510.0,2668.0 L 2515.0,2671.0 L 2523.0,2675.0 L 2534.0,2675.0 L 2531.0,2668.0 L 2528.0,2664.0 L 2517.0,2669.0 L 2507.0,2674.0 L 2494.0,2674.0 L 2490.0,2671.0 L 2483.0,2673.0 L 2476.0,2671.0 L 2471.0,2669.0 L 2464.0,2668.0 L 2454.0,2672.0 L 2470.0,2661.0 L 2478.0,2666.0 L 2485.0,2682.0 L 2495.0,2682.0 L 2504.0,2684.0 L 2522.0,2684.0 L 2540.0,2686.0 L 2562.0,2686.0 L 2592.0,2686.0 L 2616.0,2686.0 L 2621.0,2685.0 L 2628.0,2686.0 L 2648.0,2690.0 L 2636.0,2691.0 L 2634.0,2678.0 L 2630.0,2674.0 L 2639.0,2672.0 L 2656.0,2670.0 L 2671.0,2666.0 L 2685.0,2666.0 L 2707.0,2665.0 L 2713.0,2666.0 L 2719.0,2660.0 L 2707.0,2660.0 L 2692.0,2658.0 L 2683.0,2659.0 L 2675.0,2661.0 L 2663.0,2661.0 L 2657.0,2662.0 L 2648.0,2662.0 L 2634.0,2664.0 L 2629.0,2664.0 L 2639.0,2674.0 L 2633.0,2675.0 L 2633.0,2684.0 L 2625.0,2683.0 L 2616.0,2681.0 L 2609.0,2680.0 L 2630.0,2689.0 L 2636.0,2692.0 L 2613.0,2688.0 L 2605.0,2679.0 L 2602.0,2685.0 L 2595.0,2691.0 L 2583.0,2693.0 L 2582.0,2688.0 L 2577.0,2684.0 L 2569.0,2673.0 L 2563.0,2675.0 L 2568.0,2674.0 L 2591.0,2674.0 L 2598.0,2672.0 L 2605.0,2671.0 L 2610.0,2670.0 L 2630.0,2665.0 L 2635.0,2667.0 L 2649.0,2665.0 L 2654.0,2665.0 L 2678.0,2663.0 L 2690.0,2663.0 L 2708.0,2664.0 L 2715.0,2665.0 L 2736.0,2666.0 L 2750.0,2662.0 L 2755.0,2660.0 L 2761.0,2659.0 L 2775.53193087403,2659.0" fill="none" stroke="#404040" stroke-width="3.0"/>
	<path d="M 2741.828133248282,2656.0 L 2729.0,2656.0 L 2708.0,2658.0 L 2687.0,2661.0 L 2679.0,2659.0 L 2674.0,2658.0 L 2658.0,2659.0 L 2649.0,2659.0 L 2640.0,2660.0 L 2629.0,2662.0 L 2606.0,2669.0 L 2600.0,2669.0 L 2600.0,2676.0 L 2594.0,2673.0 L 2587.0,2668.0 L 2616.0,2663.0 L 2603.0,2669.0 L 2602.0,2681.0 L 2604.0,2692.0 L 2617.0,2692.0 L 2621.0,2699.0 L 2618.0,2710.0 L 2636.0,2710.0 L 2641.0,2709.0 L 2660.0,2704.0 L 2665.0,2703.0 L 2678.0,2703.0 L 2704.0,2703.0 L 2709.0,2704.0 L 2716.0,2703.0 L 2725.0,2701.0 L 2729.0,2698.0 L 2737.0,2694.0 L 2761.0,2696.0 L 2756.0,2699.0 L 2750.0,2701.0 L 2735.0,2701.0 L 2727.0,2699.0 L 2722.0,2698.0 L 2712.0,2697.0 L 2712.0,2704.0 L 2708.0,2700.0 L 2680.0,2701.0 L 2683.0,2708.0 L 2679.0,2717.0 L 2697.0,2714.0 L 2718.0,2714.0 L 2736.0,2711.0 L 2751.0,2710.0 L 2756.0,2709.0 L 2765.0,2707.0 L 2776.0,2707.0 L 2783.0,2705.0 L 2796.0,2704.0 L 2803.0,2703.0 L 2810.0,2704.0 L 2801.0,2698.0 L 2791.0,2694.0 L 2782.0,2694.0 L 2776.0,2696.0 L 2768.0,2696.0 L 2763.0,2698.0 L 2770.0,2691.0 L 2775.0,2685.0 L 2765.0,2684.0 L 2753.0,2684.0 L 2748.0,2683.0 L 2743.0,2683.0 L 2741.0,2698.0 L 2738.0,2705.0 L 2738.0,2710.0 L 2741.0,2705.0 L 2751.0,2705.0 L 2759.0,2703.0 L 2782.0,2700.0 L 2787.0,2700.0 L 2794.0,2699.0 L 2804.0,2699.0 L 2812.0,2702.0 L 2818.0,2703.0 L 2819.0,2693.0 L 2814.0,2692.0 L 2805.0,2691.0 L 2802.0,2684.0 L 2794.0,2678.0 L 2806.0,2677.0 L 2829.0,2677.0 L 2821.0,2675.0 L 2802.0,2673.0 L 2795.0,2671.0 L 2775.0,2674.0 L 2760.0,2674.0 L 2744.0,2676.0 L 2721.0,2679.0 L 2715.0,2679.0 L 2704.0,2681.0 L 2696.0,2683.0 L 2687.0,2683.0 L 2674.0,2681.0 L 2669.0,2681.0 L 2665.0,2676.0 L 2684.0,2677.0 L 2689.0,2678.0 L 2684.0,2684.0 L 2679.0,2688.0 L 2676.0,2694.0 L 2693.0,2690.0 L 2710.0,2688.0 L 2719.0,2690.0 L 2716.0,2685.0 L 2687.0,2688.0 L 2673.0,2688.0 L 2654.0,2690.0 L 2645.0,2687.0 L 2637.0,2685.0 L 2646.0,2682.0 L 2660.0,2682.0 L 2680.0,2686.0 L 2666.0,2686.0 L 2658.0,2684.0 L 2651.0,2684.0 L 2674.0,2691.0 L 2680.0,2691.0 L 2686.0,2690.0 L 2690.0,2693.0 L 2707.0,2691.0 L 2715.0,2688.0 L 2720.0,2687.0 L 2735.0,2685.0 L 2741.0,2685.0 L 2754.0,2687.0 L 2747.0,2678.0 L 2737.0,2677.0 L 2735.0,2671.0 L 2741.0,2673.0 L 2748.0,2674.0 L 2741.0,2682.0 L 2729.0,2683.0 L 2713.0,2685.0 L 2711.0,2677.0 L 2699.0,2680.0 L 2687.0,2682.0 L 2693.0,2679.0 L 2707.0,2676.0 L 2727.0,2676.0 L 2742.0,2675.0 L 2729.0,2673.0 L 2705.0,2674.0 L 2690.0,2678.0 L 2685.0,2680.0 L 2665.0,2678.0 L 2656.0,2678.0 L 2663.0,2676.0 L 2659.0,2688.0 L 2654.0,2687.0 L 2640.0,2683.0 L 2630.0,2682.0 L 2625.0,2680.0 L 2644.0,2680.0 L 2658.0,2679.0 L 2671.0,2682.0 L 2687.0,2686.0 L 2716.0,2682.0 L 2730.0,2680.0 L 2751.0,2680.0 L 2774.0,2683.0 L 2802.0,2683.0 L 2791.0,2680.0 L 2773.0,2678.0 L 2783.0,2677.0 L 2791.0,2677.0 L 2813.0,2674.0 L 2819.0,2672.0 L 2831.0,2674.0 L 2841.0,2674.0 L 2847.0,2675.0 L 2863.0,2676.0 L 2884.0,2679.0 L 2910.0,2674.0 L 2933.0,2674.0 L 2939.0,2676.0 L 2947.0,2677.0 L 2952.0,2678.0 L 2947.0,2681.0 L 2940.0,2681.0 L 2924.0,2683.0 L 2914.0,2682.0 L 2909.0,2682.0 L 2904.0,2680.0 L 2912.0,2679.0 L 2928.0,2676.0 L 2933.0,2678.0 L 2914.0,2681.0 L 2902.0,2701.0 L 2900.0,2708.0 L 2911.0,2706.0 L 2918.0,2705.0 L 2924.0,2703.0 L 2932.0,2691.0 L 2939.0,2693.0 L 2945.0,2696.0 L 2918.0,2694.0 L 2903.0,2698.0 L 2898.0,2699.0 L 2889.0,2701.0 L 2894.0,2702.0 L 2899.0,2702.0 L 2906.0,2701.0 L 2918.0,2702.0 L 2913.0,2703.0 L 2897.0,2705.0 L 2889.0,2709.0 L 2862.0,2696.0 L 2879.0,2696.0 L 2886.0,2697.0 L 2897.0,2695.0 L 2880.0,2694.0 L 2884.0,2688.0 L 2864.0,2685.0 L 2844.0,2683.0 L 2835.0,2683.0 L 2812.0,2683.0 L 2807.0,2686.0 L 2820.0,2686.0 L 2828.0,2676.0 L 2852.0,2682.0 L 2860.0,2682.0 L 2871.0,2684.0 L 2876.0,2684.0 L 2881.0,2685.0 L 2911.0,2685.0 L 2907.0,2682.0 L 2882.0,2682.0 L 2890.0,2678.0 L 2872.0,2674.0 L 2867.0,2674.0 L 2845.0,2673.0 L 2850.0,2676.0 L 2866.0,2679.0 L 2873.0,2677.0 L 2868.0,2687.0 L 2848.0,2686.0 L 2823.0,2686.0 L 2811.0,2683.0 L 2805.0,2683.0 L 2798.0,2680.0 L 2828.0,2680.0 L 2834.0,2680.0 L 2841.0,2681.0 L 2837.0,2676.0 L 2858.0,2680.0 L 2869.0,2681.0 L 2881.0,2681.0 L 2894.0,2679.0 L 2899.0,2679.0 L 2919.0,2675.0 L 2914.0,2666.0 L 2909.0,2666.0 L 2886.0,2663.0 L 2878.0,2663.0 L 2872.0,2662.0 L 2858.0,2660.0 L 2859.0,2652.0 L 2872.0,2656.0 L 2878.0,2657.0 L 2894.0605633280647,2657.0" fill="none" stroke="#404040" stroke-width="3.0"/>
	<path d="M 2869.754688032358,2664.5013394378166 L 2861.0,2662.0 L 2853.0,2658.0 L 2826.0,2658.0 L 2812.0,2662.0 L 2811.0,2654.0 L 2816.0,2652.0 L 2821.0,2653.0 L 2818.0,2658.0 L 2791.51322490631,2658.0" fill="none" stroke="#404040" stroke-width="3.0"/>
	<path d="M 2741.3902072516926,2661.0 L 2730.0,2661.0 L 2720.0,2660.0 L 2728.0,2658.0 L 2749.0,2658.0 L 2760.0,2656.0 L 2777.0,2656.0 L 2786.0,2654.0 L 2793.0,2654.0 L 2798.0,2655.0 L 2817.0,2655.0 L 2826.0,2653.0 L 2835.0,2652.0 L 2844.0,2654.0 L 2864.0,2658.0 L 2874.0,2654.0 L 2879.0,2654.0 L 2889.0,2653.0 L 2898.0,2654.0 L 2904.0,2654.0 L 2933.0,2652.0 L 2923.0,2655.0 L 2919.0,2660.0 L 2911.0,2664.0 L 2901.0,2662.0 L 2882.0,2656.0 L 2885.3080447416028,2655.3383910516795" fill="none" stroke="#404040" stroke-width="3.0"/>
	<path d="M 2915.7245176597494,2664.1828778231734 L 2924.0,2661.0 L 2929.0,2661.0 L 2919.0,2666.0 L 2914.0,2669.0 L 2904.0,2668.0 L 2889.0,2667.0 L 2917.0,2657.0 L 2940.0,2660.0 L 2946.0,2663.0 L 2940.0,2664.0 L 2931.0,2662.0 L 2930.0,2667.0 L 2925.0,2668.0 L 2922.0,2660.0 L 2914.0,2660.0 L 2916.0,2665.0 L 2923.0,2667.0 L 2939.0,2659.0 L 2944.0,2656.0 L 2915.0,2656.0 L 2895.0,2661.0 L 2890.0,2661.0 L 2873.0,2659.0 L 2868.0,2659.0 L 2856.0,2661.0 L 2832.0,2661.0 L 2826.0,2662.0 L 2799.0,2663.0 L 2794.0,2661.0 L 2808.0,2661.0 L 2790.0,2662.0 L 2774.0,2662.0 L 2769.0,2663.0 L 2750.0,2665.0 L 2756.0,2662.0 L 2761.0,2662.0 L 2772.0,2661.0 L 2771.0,2666.0 L 2744.0,2665.0 L 2738.0,2664.0 L 2709.0,2662.0 L 2692.0,2661.0 L 2692.0,2667.0 L 2687.0,2668.0 L 2673.0,2669.0 L 2662.0,2667.0 L 2656.0,2667.0 L 2635.0,2670.0 L 2614.0,2674.0 L 2604.0,2674.0 L 2611.0,2672.0 L 2632.0,2668.0 L 2620.0,2666.0 L 2614.0,2663.0 L 2615.0,2654.0 L 2608.0,2655.0 L 2586.0,2660.0 L 2579.0,2662.0 L 2589.0,2664.0 L 2599.0,2665.0 L 2604.0,2667.0 L 2590.0,2671.0 L 2560.0,2671.0 L 2547.0,2670.0 L 2552.0,2668.0 L 2576.0,2668.0 L 2572.0,2674.0 L 2557.0,2674.0 L 2548.0,2673.0 L 2542.0,2669.0 L 2536.0,2664.0 L 2534.0,2659.0 L 2523.0,2658.0 L 2532.9474941324875,2652.643657005584" fill="none" stroke="#404040" stroke-width="3.0"/>
	<path d="M 2573.4066772362603,2659.2412748744096 L 2575.0,2660.0 L 2593.0,2656.0 L 2599.3148780973384,2655.425920172969" fill="none" stroke="#404040" stroke-width="3.0"/>
	<path d="M 2539.992175908196,2653.0 L 2536.0,2653.0 L 2531.0,2652.0 L 2517.0,2652.0 L 2509.0,2654.0 L 2536.0,2656.0 L 2546.0,2659.0 L 2541.0,2660.0 L 2538.0,2670.0 L 2536.0,2675.0 L 2530.0,2682.0 L 2535.0,2683.0 L 2563.0,2683.0 L 2566.0,2692.0 L 2556.0,2690.0 L 2552.0,2693.0 L 2556.0,2682.0 L 2554.0,2673.0 L 2549.0,2666.0 L 2540.0,2671.0 L 2542.0,2677.0 L 2525.0,2677.0 L 2511.0,2673.0 L 2506.0,2672.0 L 2527.0,2683.0 L 2527.0,2688.0 L 2522.0,2691.0 L 2522.0,2669.0 L 2521.0,2664.0 L 2508.0,2670.0 L 2501.0,2671.0 L 2488.0,2671.0 L 2482.0,2670.0 L 2470.0,2666.0 L 2458.0,2665.0 L 2445.0,2661.0 L 2436.0,2657.0 L 2425.0,2653.0 L 2417.932291192279,2653.0" fill="none" stroke="#404040" stroke-width="3.0"/>
	<path d="M 2447.3431720204567,2652.487936309266 L 2454.0,2653.0 L 2456.7479836156335,2653.0" fill="none" stroke="#404040" stroke-width="3.0"/>
	<path d="M 2507.4248467871353,2656.3191086345373 L 2505.3888416601517,2656.1993436270677" fill="none" stroke="#404040" stroke-width="3.0"/>
	<path d="M 2479.7201448261326,2653.0 L 2481.9921759090007,2653.0" fill="none" stroke="#404040" stroke-width="3.0"/>
	<path d="M 2495.28595072791,2656.0 L 2473.0,2656.0 L 2456.0,2656.0 L 2451.0,2655.0 L 2444.0,2655.0 L 2427.0,2653.0 L 2431.0,2657.0 L 2447.626705302473,2664.824331907046" fill="none" stroke="#404040" stroke-width="3.0"/>
	<path d="M 2182.4629228732924,2659.2059032607153 L 2189.0,2678.0 L 2191.0,2683.0 L 2191.0,2673.0 L 2190.0,2667.0 L 2191.0,2662.0 L 2195.0,2681.0 L 2190.0,2678.0 L 2187.0,2665.0 L 2182.0,2664.0 L 2187.0,2680.0 L 2180.2321445994253,2669.36479865624" fill="none" stroke="#404040" stroke-width="3.0"/>
	<path d="M 2089.692775747824,2667.158756498208 L 2098.0,2674.0 L 2105.0,2678.0 L 2089.0,2676.0 L 2076.0,2673.0 L 2046.0,2673.0 L 2038.0,2701.0 L 2063.0,2701.0 L 2067.0,2713.0 L 2075.0,2714.0 L 2059.0,2709.0 L 2057.0,2715.0 L 2057.0,2721.0 L 2054.0,2727.0 L 2043.0,2708.0 L 2044.0,2703.0 L 2068.0,2709.0 L 2089.0,2709.0 L 2097.0,2710.0 L 2084.0,2707.0 L 2079.0,2706.0 L 2068.0,2706.0 L 2055.0,2703.0 L 2061.0,2695.0 L 2065.0,2692.0 L 2072.0,2688.0 L 2076.0,2684.0 L 2076.0,2695.0 L 2078.0,2710.0 L 2102.0,2713.0 L 2100.0,2718.0 L 2104.0,2731.0 L 2104.0,2719.0 L 2098.0,2718.0 L 2093.0,2716.0 L 2096.0,2722.0 L 2108.0,2738.0 L 2124.0,2752.0 L 2114.0,2735.0 L 2120.0,2725.0 L 2112.0,2727.0 L 2127.0,2752.0 L 2122.0,2765.0 L 2118.0,2777.0 L 2120.0,2748.0 L 2127.0,2762.0 L 2131.0,2774.0 L 2131.0,2787.0 L 2133.0,2797.0 L 2140.0,2780.0 L 2143.0,2775.0 L 2134.0,2776.0 L 2122.0,2777.0 L 2122.0,2754.0 L 2125.0,2761.0 L 2136.0,2765.0 L 2131.0,2766.0 L 2124.0,2769.0 L 2122.0,2779.0 L 2121.0,2789.0 L 2150.0,2792.0 L 2171.0,2788.0 L 2176.0,2786.0 L 2183.0,2757.0 L 2189.0,2755.0 L 2183.0,2755.0 L 2176.0,2773.0 L 2173.0,2780.0 L 2171.0,2787.0 L 2174.0,2783.0 L 2176.0,2777.0 L 2181.0,2775.0 L 2186.0,2758.0 L 2180.0,2729.0 L 2178.0,2744.0 L 2172.0,2762.0 L 2171.0,2768.0 L 2179.0,2749.0 L 2183.0,2731.0 L 2175.0,2733.0 L 2168.0,2730.0 L 2168.0,2736.0 L 2167.0,2747.0 L 2170.0,2740.0 L 2175.0,2720.0 L 2170.0,2728.0 L 2165.0,2735.0 L 2161.0,2762.0 L 2166.0,2750.0 L 2166.0,2743.0 L 2177.0,2744.0 L 2174.0,2749.0 L 2164.0,2776.0 L 2158.0,2786.0 L 2155.0,2795.0 L 2154.0,2786.0 L 2149.0,2784.0 L 2148.0,2789.0 L 2143.0,2785.0 L 2139.0,2797.0 L 2136.0,2803.0 L 2133.0,2807.0 L 2129.0,2782.0 L 2129.0,2775.0 L 2133.0,2772.0 L 2134.0,2767.0 L 2130.0,2770.0 L 2125.0,2778.0 L 2124.0,2784.0 L 2128.0,2812.0 L 2135.0,2815.0 L 2141.0,2815.0 L 2156.0,2822.0 L 2149.0,2827.0 L 2136.0,2832.0 L 2138.0,2848.0 L 2138.0,2860.0 L 2136.0,2877.0 L 2135.0,2882.0 L 2133.0,2877.0 L 2138.0,2875.0 L 2140.0,2868.0 L 2142.0,2863.0 L 2145.0,2854.0 L 2156.0,2864.0 L 2157.0,2856.0 L 2168.0,2857.0 L 2161.0,2872.0 L 2151.0,2867.0 L 2148.0,2874.0 L 2144.0,2885.0 L 2138.0,2897.0 L 2138.0,2892.0 L 2143.0,2882.0 L 2139.0,2872.0 L 2145.0,2874.0 L 2154.0,2876.0 L 2159.0,2879.0 L 2162.0,2850.0 L 2157.0,2862.0 L 2152.0,2864.0 L 2152.0,2871.0 L 2146.0,2866.0 L 2141.0,2871.0 L 2155.0,2845.0 L 2148.0,2839.0 L 2138.0,2835.0 L 2143.0,2833.0 L 2130.0,2834.0 L 2130.0,2829.0 L 2135.0,2821.0 L 2132.0,2834.0 L 2139.0,2825.0 L 2144.0,2812.0 L 2147.0,2808.0 L 2155.0,2786.0 L 2170.0,2763.0 L 2169.0,2769.0 L 2162.0,2785.0 L 2157.0,2788.0 L 2144.0,2788.0 L 2147.0,2800.0 L 2146.0,2805.0 L 2143.0,2810.0 L 2149.0,2795.0 L 2150.0,2789.0 L 2147.0,2794.0 L 2139.0,2813.0 L 2139.0,2819.0 L 2138.0,2829.0 L 2154.0,2833.0 L 2154.0,2841.0 L 2156.0,2836.0 L 2163.0,2816.0 L 2163.0,2823.0 L 2159.0,2836.0 L 2147.0,2854.0 L 2148.0,2849.0 L 2156.0,2832.0 L 2144.0,2834.0 L 2140.0,2842.0 L 2137.0,2846.0 L 2130.0,2859.0 L 2135.0,2856.0 L 2137.0,2851.0 L 2140.0,2847.0 L 2149.0,2830.0 L 2158.0,2805.0 L 2159.0,2800.0 L 2156.0,2805.0 L 2154.0,2810.0 L 2146.0,2827.0 L 2150.0,2823.0 L 2155.0,2820.0 L 2159.0,2809.0 L 2151.0,2812.0 L 2131.0,2812.0 L 2127.0,2786.0 L 2126.0,2776.0 L 2126.0,2771.0 L 2140.0,2775.0 L 2145.0,2775.0 L 2137.0,2794.0 L 2134.0,2802.0 L 2134.0,2812.0 L 2136.0,2818.0 L 2139.0,2839.0 L 2140.0,2848.0 L 2141.0,2855.0 L 2140.0,2866.0 L 2146.0,2859.0 L 2153.0,2861.0 L 2158.0,2859.0 L 2168.0,2859.0 L 2172.0,2863.0 L 2180.0,2879.0 L 2183.0,2884.0 L 2178.0,2885.0 L 2160.0,2891.0 L 2157.0,2907.0 L 2164.0,2909.0 L 2163.0,2914.0 L 2158.0,2920.0 L 2154.0,2923.0 L 2156.0,2915.0 L 2148.0,2911.0 L 2144.0,2907.0 L 2140.0,2914.0 L 2133.0,2923.0 L 2126.0,2936.0 L 2119.0,2956.0 L 2095.0,2973.0 L 2091.0,2978.0 L 2078.0,2997.0 L 2054.0,3015.0 L 2050.0,3020.0 L 2036.0,3032.0 L 2043.0,3029.0 L 2062.0,3014.0 L 2065.0,3009.0 L 2072.0,3002.0 L 2080.0,2990.0 L 2083.0,2985.0 L 2103.0,2970.0 L 2100.0,2974.0 L 2092.0,2981.0 L 2083.0,2992.0 L 2099.0,2978.0 L 2076.0,2991.0 L 2073.0,2998.0 L 2050.0,3016.0 L 2048.0,3021.0 L 2053.0,3018.0 L 2073.0,3005.0 L 2080.0,2995.0 L 2074.0,2984.0 L 2053.0,3001.0 L 2056.0,2996.0 L 2065.0,2989.0 L 2045.0,3003.0 L 2026.0,3025.0 L 2007.0,3036.0 L 1988.0,3048.0 L 1983.0,3052.0 L 1989.0,3050.0 L 2003.0,3041.0 L 2013.0,3035.0 L 2018.0,3031.0 L 2013.0,3031.0 L 2017.0,3027.0 L 2023.0,3024.0 L 2027.0,3021.0 L 2034.0,3012.0 L 2029.0,3013.0 L 2023.0,3007.0 L 2006.0,3003.0 L 2020.0,2995.0 L 2027.0,2995.0 L 2038.0,2994.0 L 2039.0,2989.0 L 2036.0,3004.0 L 2021.0,3016.0 L 2022.0,3011.0 L 2035.0,3015.0 L 2054.0,3002.0 L 2044.0,3005.0 L 2032.0,3003.0 L 2027.0,3004.0 L 2032.0,3004.0 L 2016.0,3016.0 L 2010.0,3021.0 L 1989.0,3030.0 L 1999.0,3030.0 L 1988.0,3037.0 L 1999.0,3049.0 L 2005.0,3049.0 L 2011.0,3046.0 L 2025.0,3035.0 L 2030.0,3033.0 L 2043.0,3020.0 L 2048.0,3016.0 L 2045.0,3021.0 L 2032.0,3034.0 L 2029.0,3038.0 L 2036.0,3034.0 L 2017.0,3047.0 L 1999.0,3056.0 L 1990.0,3061.0 L 1984.266573892552,3063.2933704429793" fill="none" stroke="#404040" stroke-width="3.0"/>
	<path d="M 1982.1403531378364,3063.5789405864907 L 1983.0,3061.0 L 1988.0,3058.0 L 1994.0,3056.0 L 2010.0,3048.0 L 2024.0,3040.0 L 2029.0,3036.0 L 2010.0,3044.0 L 1996.0,3052.0 L 1992.0,3056.0 L 1986.4270421264964,3063.092855475368" fill="none" stroke="#404040" stroke-width="3.0"/>
	<path d="M 1980.786299484055,3054.398361444646 L 1978.44497097353,3060.954081274116" fill="none" stroke="#404040" stroke-width="3.0"/>
	<path d="M 1986.885086673052,3138.3842114230983 L 1992.0,3134.0 L 2001.0,3127.0 L 2019.0,3113.0 L 2025.0,3109.0 L 2028.0,3104.0 L 2035.0,3097.0 L 2040.0,3091.0 L 2043.0,3086.0 L 2038.0,3085.0 L 2041.0,3094.0 L 2058.0,3081.0 L 2064.0,3077.0 L 2080.0,3057.0 L 2065.0,3071.0 L 2048.0,3084.0 L 2041.0,3090.0 L 2039.0,3095.0 L 2023.0,3113.0 L 2006.0,3125.0 L 2003.0,3131.0 L 1988.0,3142.0 L 1986.7066119562883,3143.047028416338" fill="none" stroke="#404040" stroke-width="3.0"/>
	<path d="M 1986.8786852884093,3140.6010955929924 L 1990.0,3138.0 L 1994.0,3135.0 L 2002.0,3130.0 L 2001.0,3125.0 L 2022.0,3108.0 L 2028.0,3101.0 L 2032.0,3097.0 L 2041.0,3092.0 L 2055.0,3081.0 L 2076.0,3065.0 L 2086.0,3055.0 L 2100.0,3046.0 L 2109.0,3040.0 L 2104.0,3039.0 L 2107.0,3035.0 L 2112.0,3033.0 L 2124.0,3021.0 L 2117.0,3022.0 L 2113.0,3027.0 L 2109.0,3032.0 L 2088.0,3051.0 L 2093.0,3048.0 L 2107.0,3038.0 L 2125.0,3015.0 L 2131.0,3010.0 L 2143.0,2996.0 L 2146.0,2990.0 L 2131.0,3007.0 L 2123.0,3023.0 L 2141.0,3001.0 L 2155.0,2982.0 L 2159.0,2977.0 L 2165.0,2969.0 L 2160.0,2980.0 L 2149.0,2986.0 L 2165.0,2967.0 L 2173.0,2951.0 L 2180.0,2941.0 L 2183.0,2936.0 L 2190.0,2932.0 L 2194.0,2935.0 L 2194.0,2929.0 L 2199.0,2927.0 L 2195.0,2933.0 L 2188.0,2938.0 L 2183.0,2946.0 L 2179.0,2949.0 L 2178.0,2954.0 L 2187.0,2959.0 L 2187.0,2964.0 L 2182.0,2966.0 L 2185.0,2961.0 L 2177.0,2976.0 L 2171.0,2977.0 L 2166.0,2971.0 L 2177.0,2949.0 L 2191.0,2931.0 L 2181.0,2933.0 L 2175.0,2933.0 L 2170.0,2934.0 L 2168.0,2939.0 L 2165.0,2943.0 L 2153.0,2963.0 L 2152.0,2969.0 L 2147.0,2970.0 L 2150.0,2966.0 L 2157.0,2952.0 L 2148.0,2966.0 L 2132.0,2991.0 L 2122.0,3006.0 L 2118.0,3011.0 L 2121.0,3003.0 L 2116.0,3010.0 L 2123.0,3012.0 L 2134.0,3019.0 L 2143.0,3015.0 L 2124.0,3036.0 L 2129.0,3034.0 L 2148.0,3012.0 L 2160.0,2998.0 L 2166.0,2988.0 L 2171.0,2986.0 L 2165.0,2984.0 L 2161.0,2987.0 L 2161.0,2992.0 L 2159.0,2997.0 L 2143.0,3013.0 L 2146.0,3008.0 L 2161.0,2991.0 L 2165.0,2986.0 L 2176.0,2971.0 L 2174.0,2976.0 L 2163.0,2998.0 L 2157.0,3004.0 L 2152.0,3007.0 L 2144.0,3014.0 L 2140.0,3034.0 L 2145.0,3027.0 L 2139.0,3022.0 L 2121.0,3011.0 L 2133.0,2994.0 L 2137.0,2988.0 L 2147.0,2972.0 L 2155.0,2963.0 L 2170.0,2940.0 L 2173.0,2934.0 L 2160.0,2941.0 L 2152.0,2946.0 L 2156.0,2942.0 L 2173.0,2920.0 L 2173.0,2912.0 L 2168.0,2923.0 L 2155.0,2940.0 L 2151.0,2946.0 L 2139.0,2965.0 L 2123.0,2990.0 L 2112.0,3005.0 L 2113.0,2998.0 L 2117.0,2991.0 L 2128.0,2976.0 L 2148.0,2955.0 L 2149.0,2950.0 L 2143.0,2955.0 L 2134.0,2968.0 L 2127.0,2980.0 L 2121.0,2989.0 L 2104.0,3013.0 L 2101.0,3017.0 L 2095.0,3021.0 L 2081.0,3032.0 L 2077.0,3036.0 L 2073.0,3041.0 L 2063.0,3056.0 L 2050.0,3065.0 L 2039.0,3073.0 L 2014.0,3088.0 L 2013.0,3095.0 L 1996.0,3106.0 L 1987.258673211476,3113.2210960426937" fill="none" stroke="#404040" stroke-width="3.0"/>
	<path d="M 1986.813449686634,3108.624256766982 L 1994.0,3103.0 L 2010.0,3091.0 L 2030.0,3081.0 L 2042.0,3073.0 L 2057.0,3062.0 L 2059.0,3056.0 L 2064.0,3053.0 L 2040.0,3070.0 L 2060.0,3053.0 L 2073.0,3042.0 L 2095.0,3023.0 L 2103.0,3012.0 L 2106.0,3006.0 L 2096.0,3018.0 L 2083.0,3028.0 L 2086.0,3035.0 L 2078.0,3040.0 L 2074.0,3044.0 L 2069.0,3052.0 L 2054.0,3066.0 L 2040.0,3077.0 L 2029.0,3084.0 L 2020.0,3088.0 L 2010.0,3094.0 L 1997.0,3103.0 L 1987.0,3111.0 L 1986.8707858863902,3111.1020111423236" fill="none" stroke="#404040" stroke-width="3.0"/>
	<path d="M 1988.7205727278047,3089.967656363317 L 1997.0,3085.0 L 2005.0,3078.0 L 2012.0,3073.0 L 2011.0,3065.0 L 2003.0,3072.0 L 2001.0,3081.0 L 1983.0,3090.0 L 1978.0,3090.0 L 1974.0,3094.0 L 1972.0,3099.0 L 1978.0,3094.0 L 1980.0,3089.0 L 1991.0,3083.0 L 1996.0,3081.0 L 2002.0,3077.0 L 2021.0,3066.0 L 2005.0,3055.0 L 1988.899943592028,3064.966701585887" fill="none" stroke="#404040" stroke-width="3.0"/>
	<path d="M 1984.7785421870562,3088.295277083925 L 1991.0,3080.0 L 1996.0,3078.0 L 2014.0,3067.0 L 2022.0,3064.0 L 2030.0,3057.0 L 2039.0,3052.0 L 2045.0,3048.0 L 2049.0,3044.0 L 2057.0,3035.0 L 2067.0,3028.0 L 2055.0,3041.0 L 2047.0,3049.0 L 2028.0,3061.0 L 2024.0,3064.0 L 2029.0,3062.0 L 2041.0,3048.0 L 2055.0,3039.0 L 2059.0,3036.0 L 2066.0,3033.0 L 2076.0,3015.0 L 2090.0,3008.0 L 2107.0,2985.0 L 2113.0,2978.0 L 2122.0,2965.0 L 2129.0,2957.0 L 2136.0,2952.0 L 2147.0,2942.0 L 2142.0,2934.0 L 2147.0,2932.0 L 2148.0,2923.0 L 2148.0,2913.0 L 2145.0,2924.0 L 2145.0,2930.0 L 2140.0,2931.0 L 2145.0,2917.0 L 2146.0,2912.0 L 2141.0,2922.0 L 2138.0,2929.0 L 2133.0,2939.0 L 2127.0,2949.0 L 2124.0,2955.0 L 2143.0,2932.0 L 2119.0,2950.0 L 2106.0,2959.0 L 2102.0,2963.0 L 2104.0,2971.0 L 2109.0,2957.0 L 2118.0,2954.0 L 2131.0,2960.0 L 2147.0,2943.0 L 2150.0,2939.0 L 2139.0,2946.0 L 2122.0,2970.0 L 2107.0,2978.0 L 2099.0,2988.0 L 2086.0,3007.0 L 2074.0,3020.0 L 2061.0,3030.0 L 2076.0,3013.0 L 2083.0,3008.0 L 2089.0,3006.0 L 2105.0,2984.0 L 2109.0,2978.0 L 2115.0,2980.0 L 2110.0,2983.0 L 2098.0,2972.0 L 2098.0,2967.0 L 2117.0,2955.0 L 2117.0,2960.0 L 2123.0,2953.0 L 2126.0,2944.0 L 2124.0,2939.0 L 2103.0,2959.0 L 2127.0,2941.0 L 2129.0,2936.0 L 2137.0,2920.0 L 2141.0,2908.0 L 2150.0,2885.0 L 2154.0,2877.0 L 2151.0,2887.0 L 2148.0,2907.0 L 2150.0,2912.0 L 2151.0,2917.0 L 2148.0,2923.0 L 2143.0,2929.0 L 2130.0,2940.0 L 2132.0,2935.0 L 2143.0,2913.0 L 2148.0,2896.0 L 2155.0,2881.0 L 2159.0,2869.0 L 2165.0,2860.0 L 2173.0,2862.0 L 2179.0,2862.0 L 2194.0,2865.0 L 2194.0,2876.0 L 2193.0,2884.0 L 2191.0,2894.0 L 2189.0,2888.0 L 2194.0,2888.0 L 2199.0,2874.0 L 2180.0,2897.0 L 2190.0,2890.0 L 2188.0,2896.0 L 2182.0,2903.0 L 2176.0,2911.0 L 2171.0,2909.0 L 2175.0,2901.0 L 2175.0,2886.0 L 2179.0,2896.0 L 2180.0,2901.0 L 2185.0,2910.0 L 2182.0,2914.0 L 2172.0,2931.0 L 2176.0,2928.0 L 2182.0,2921.0 L 2187.0,2914.0 L 2191.0,2910.0 L 2185.0,2920.0 L 2176.0,2931.0 L 2178.0,2925.0 L 2186.0,2911.0 L 2192.0,2908.0 L 2200.0,2902.0 L 2195.0,2900.0 L 2197.0,2906.0 L 2179.0,2908.0 L 2160.0,2914.0 L 2164.0,2906.0 L 2171.0,2894.0 L 2174.0,2888.0 L 2167.0,2912.0 L 2165.0,2899.0 L 2161.0,2894.0 L 2163.0,2888.0 L 2166.0,2881.0 L 2173.0,2886.0 L 2179.0,2880.0 L 2179.0,2890.0 L 2177.0,2901.0 L 2175.0,2909.0 L 2184.0,2897.0 L 2189.0,2891.0 L 2183.0,2880.0 L 2180.0,2873.0 L 2180.0,2867.0 L 2183.0,2858.0 L 2177.0,2859.0 L 2172.0,2876.0 L 2170.0,2882.0 L 2162.0,2904.0 L 2160.0,2909.0 L 2157.0,2917.0 L 2154.0,2922.0 L 2150.0,2930.0 L 2150.0,2924.0 L 2153.0,2918.0 L 2159.0,2904.0 L 2166.0,2887.0 L 2171.0,2869.0 L 2179.0,2864.0 L 2195.0,2869.0 L 2190.0,2874.0 L 2188.0,2869.0 L 2188.0,2842.0 L 2186.0,2828.0 L 2187.0,2823.0 L 2189.0,2832.0 L 2191.0,2843.0 L 2191.0,2864.0 L 2193.0,2869.0 L 2178.0,2878.0 L 2172.0,2884.0 L 2174.0,2879.0 L 2181.0,2859.0 L 2197.0,2864.0 L 2205.0,2861.0 L 2204.0,2870.0 L 2202.0,2876.0 L 2199.0,2872.0 L 2200.0,2865.0 L 2200.0,2850.0 L 2199.0,2842.0 L 2215.0,2833.0 L 2224.0,2829.0 L 2218.0,2838.0 L 2213.0,2844.0 L 2208.0,2854.0 L 2206.0,2842.0 L 2204.0,2834.0 L 2201.0,2820.0 L 2207.0,2820.0 L 2211.0,2827.0 L 2219.0,2829.0 L 2229.0,2821.0 L 2230.0,2816.0 L 2233.0,2809.0 L 2230.0,2798.0 L 2226.0,2787.0 L 2231.0,2789.0 L 2227.0,2797.0 L 2229.0,2803.0 L 2231.0,2815.0 L 2233.0,2822.0 L 2234.0,2816.0 L 2235.0,2811.0 L 2239.0,2808.0 L 2241.0,2802.0 L 2235.0,2805.0 L 2226.0,2798.0 L 2228.0,2810.0 L 2223.0,2819.0 L 2220.0,2825.0 L 2214.0,2826.0 L 2209.0,2835.0 L 2209.0,2806.0 L 2206.0,2802.0 L 2205.0,2818.0 L 2204.0,2823.0 L 2197.0,2828.0 L 2202.0,2848.0 L 2203.0,2853.0 L 2203.0,2858.0 L 2200.0,2882.0 L 2197.0,2875.0 L 2197.0,2860.0 L 2208.0,2848.0 L 2212.0,2842.0 L 2212.0,2836.0 L 2219.0,2834.0 L 2212.0,2824.0 L 2207.0,2818.0 L 2206.0,2803.0 L 2200.0,2789.0 L 2200.0,2797.0 L 2197.0,2808.0 L 2197.0,2813.0 L 2201.0,2832.0 L 2204.0,2847.0 L 2208.0,2855.0 L 2213.0,2851.0 L 2208.0,2844.0 L 2210.0,2837.0 L 2217.0,2827.0 L 2219.0,2817.0 L 2218.0,2802.0 L 2216.0,2775.0 L 2224.0,2764.0 L 2228.0,2756.0 L 2227.0,2765.0 L 2224.0,2757.0 L 2223.0,2763.0 L 2217.0,2779.0 L 2221.0,2786.0 L 2222.0,2778.0 L 2221.0,2773.0 L 2216.0,2795.0 L 2215.0,2801.0 L 2216.0,2806.0 L 2216.0,2820.0 L 2221.0,2818.0 L 2237.0,2810.0 L 2243.0,2809.0 L 2241.0,2796.0 L 2239.0,2788.0 L 2238.0,2780.0 L 2244.0,2795.0 L 2252.0,2784.0 L 2256.0,2780.0 L 2260.0,2774.0 L 2258.0,2787.0 L 2256.0,2796.0 L 2242.0,2799.0 L 2236.0,2801.0 L 2243.0,2786.0 L 2237.0,2778.0 L 2254.0,2782.0 L 2265.0,2782.0 L 2266.0,2777.0 L 2260.0,2758.0 L 2260.0,2749.0 L 2255.0,2750.0 L 2248.0,2748.0 L 2245.0,2759.0 L 2244.0,2764.0 L 2232.0,2772.0 L 2237.0,2770.0 L 2235.0,2781.0 L 2238.0,2792.0 L 2253.0,2796.0 L 2259.0,2804.0 L 2261.0,2799.0 L 2261.0,2789.0 L 2262.0,2779.0 L 2260.0,2773.0 L 2257.0,2767.0 L 2251.0,2752.0 L 2258.0,2752.0 L 2258.0,2761.0 L 2255.0,2756.0 L 2267.0,2783.0 L 2264.0,2804.0 L 2263.0,2812.0 L 2263.0,2842.0 L 2271.0,2861.0 L 2273.0,2868.0 L 2264.0,2870.0 L 2269.0,2868.0 L 2269.0,2873.0 L 2261.0,2884.0 L 2255.0,2892.0 L 2256.0,2882.0 L 2256.0,2877.0 L 2260.0,2853.0 L 2262.0,2847.0 L 2264.0,2852.0 L 2267.0,2848.0 L 2262.0,2846.0 L 2261.0,2837.0 L 2255.0,2864.0 L 2275.0,2859.0 L 2280.0,2860.0 L 2284.0,2875.0 L 2285.0,2883.0 L 2287.0,2889.0 L 2287.0,2859.0 L 2282.0,2856.0 L 2282.0,2861.0 L 2275.0,2874.0 L 2284.0,2871.0 L 2284.0,2855.0 L 2282.0,2848.0 L 2279.0,2831.0 L 2269.0,2810.0 L 2269.0,2804.0 L 2264.0,2807.0 L 2273.0,2831.0 L 2278.0,2835.0 L 2273.0,2824.0 L 2267.0,2810.0 L 2267.0,2802.0 L 2268.0,2792.0 L 2264.0,2784.0 L 2286.0,2804.0 L 2281.0,2802.0 L 2259.0,2791.0 L 2258.0,2800.0 L 2258.0,2815.0 L 2260.0,2820.0 L 2261.0,2811.0 L 2261.0,2805.0 L 2263.0,2795.0 L 2281.0,2807.0 L 2288.0,2811.0 L 2290.0,2828.0 L 2291.0,2840.0 L 2290.0,2835.0 L 2289.0,2843.0 L 2287.0,2853.0 L 2274.0,2850.0 L 2266.0,2839.0 L 2266.0,2829.0 L 2269.0,2837.0 L 2269.0,2827.0 L 2272.0,2815.0 L 2272.0,2803.0 L 2270.0,2787.0 L 2274.0,2796.0 L 2278.0,2807.0 L 2282.0,2814.0 L 2276.0,2791.0 L 2260.0,2787.0 L 2264.0,2791.0 L 2268.0,2800.0 L 2279.0,2810.0 L 2289.0,2833.0 L 2282.0,2804.0 L 2293.0,2827.0 L 2293.0,2832.0 L 2294.0,2837.0 L 2300.0,2866.0 L 2303.0,2875.0 L 2302.0,2888.0 L 2297.0,2897.0 L 2301.0,2902.0 L 2296.0,2918.0 L 2294.0,2923.0 L 2284.0,2951.0 L 2290.0,2950.0 L 2286.0,2956.0 L 2281.0,2949.0 L 2276.0,2947.0 L 2279.0,2936.0 L 2285.0,2935.0 L 2287.0,2919.0 L 2294.0,2918.0 L 2295.0,2912.0 L 2291.0,2916.0 L 2291.0,2923.0 L 2284.0,2944.0 L 2281.0,2950.0 L 2278.0,2924.0 L 2285.0,2927.0 L 2285.0,2932.0 L 2289.0,2922.0 L 2297.0,2918.0 L 2310.0,2893.0 L 2323.0,2874.0 L 2323.0,2869.0 L 2324.0,2876.0 L 2314.0,2895.0 L 2307.0,2904.0 L 2303.0,2910.0 L 2303.0,2899.0 L 2308.0,2900.0 L 2320.0,2881.0 L 2320.0,2864.0 L 2316.0,2853.0 L 2313.0,2849.0 L 2314.0,2842.0 L 2314.0,2835.0 L 2343.0,2833.0 L 2338.0,2834.0 L 2344.0,2835.0 L 2339.0,2836.0 L 2326.0,2837.0 L 2315.0,2839.0 L 2316.0,2833.0 L 2321.0,2832.0 L 2316.0,2844.0 L 2314.0,2853.0 L 2317.0,2869.0 L 2318.0,2856.0 L 2301.0,2865.0 L 2300.0,2854.0 L 2298.0,2837.0 L 2296.0,2844.0 L 2286.0,2841.0 L 2288.0,2847.0 L 2293.0,2846.0 L 2293.0,2841.0 L 2296.0,2835.0 L 2296.0,2828.0 L 2298.0,2833.0 L 2302.0,2847.0 L 2304.0,2868.0 L 2306.0,2876.0 L 2302.0,2882.0 L 2297.0,2882.0 L 2304.0,2860.0 L 2307.0,2854.0 L 2307.0,2871.0 L 2309.0,2863.0 L 2305.0,2866.0 L 2301.0,2877.0 L 2299.0,2886.0 L 2297.0,2894.0 L 2293.0,2897.0 L 2283.0,2909.0 L 2279.0,2917.0 L 2278.0,2912.0 L 2281.0,2908.0 L 2297.0,2889.0 L 2294.0,2893.0 L 2288.0,2891.0 L 2289.0,2897.0 L 2292.0,2902.0 L 2295.0,2895.0 L 2286.0,2893.0 L 2275.0,2894.0 L 2267.0,2891.0 L 2285.0,2884.0 L 2283.0,2889.0 L 2279.0,2892.0 L 2269.0,2909.0 L 2270.0,2914.0 L 2278.0,2898.0 L 2281.0,2891.0 L 2291.0,2888.0 L 2290.0,2883.0 L 2290.0,2866.0 L 2285.0,2848.0 L 2283.0,2837.0 L 2281.0,2830.0 L 2271.0,2828.0 L 2265.0,2828.0 L 2261.0,2831.0 L 2259.0,2816.0 L 2264.0,2813.0 L 2271.0,2831.0 L 2272.0,2837.0 L 2264.0,2841.0 L 2274.0,2853.0 L 2276.0,2858.0 L 2282.0,2864.0 L 2278.0,2873.0 L 2272.0,2884.0 L 2268.0,2890.0 L 2264.0,2887.0 L 2259.0,2887.0 L 2249.0,2883.0 L 2238.0,2909.0 L 2228.0,2930.0 L 2217.0,2946.0 L 2219.0,2951.0 L 2226.0,2953.0 L 2223.0,2964.0 L 2224.0,2969.0 L 2233.0,2953.0 L 2234.0,2937.0 L 2239.0,2926.0 L 2254.0,2918.0 L 2248.0,2892.0 L 2252.0,2886.0 L 2250.0,2892.0 L 2253.0,2896.0 L 2253.0,2901.0 L 2247.0,2919.0 L 2240.0,2933.0 L 2236.0,2942.0 L 2229.0,2955.0 L 2219.0,2975.0 L 2218.0,2980.0 L 2212.0,2985.0 L 2216.0,2979.0 L 2220.0,2958.0 L 2221.0,2950.0 L 2208.0,2964.0 L 2207.0,2970.0 L 2203.0,2976.0 L 2194.0,2993.0 L 2178.0,3015.0 L 2173.0,3018.0 L 2169.0,3029.0 L 2150.0,3051.0 L 2140.0,3058.0 L 2132.0,3066.0 L 2138.0,3070.0 L 2149.0,3049.0 L 2156.0,3041.0 L 2162.0,3048.0 L 2161.0,3053.0 L 2157.0,3064.0 L 2156.0,3058.0 L 2160.0,3052.0 L 2164.0,3059.0 L 2167.0,3052.0 L 2170.0,3040.0 L 2179.0,3024.0 L 2184.0,3027.0 L 2173.0,3047.0 L 2168.0,3051.0 L 2173.0,3042.0 L 2181.0,3030.0 L 2185.0,3027.0 L 2195.0,3008.0 L 2194.0,3003.0 L 2190.0,3010.0 L 2185.0,3017.0 L 2178.0,3031.0 L 2165.0,3049.0 L 2160.0,3064.0 L 2161.0,3078.0 L 2172.0,3061.0 L 2185.0,3044.0 L 2188.0,3038.0 L 2181.0,3046.0 L 2163.0,3070.0 L 2174.0,3062.0 L 2187.0,3044.0 L 2194.0,3032.0 L 2205.0,3016.0 L 2208.0,3011.0 L 2213.0,3010.0 L 2211.0,3005.0 L 2193.0,3029.0 L 2207.0,3017.0 L 2209.0,3011.0 L 2220.0,2990.0 L 2229.0,2979.0 L 2240.0,2962.0 L 2242.0,2955.0 L 2248.0,2946.0 L 2248.0,2951.0 L 2233.0,2976.0 L 2221.0,2995.0 L 2218.0,2999.0 L 2227.0,2980.0 L 2243.0,2955.0 L 2255.0,2928.0 L 2240.0,2923.0 L 2245.0,2911.0 L 2226.0,2897.0 L 2233.0,2887.0 L 2236.0,2874.0 L 2234.0,2869.0 L 2230.0,2890.0 L 2230.0,2896.0 L 2220.0,2887.0 L 2220.0,2892.0 L 2216.0,2895.0 L 2215.0,2902.0 L 2219.0,2899.0 L 2218.0,2892.0 L 2216.0,2887.0 L 2223.0,2890.0 L 2231.0,2895.0 L 2223.0,2904.0 L 2230.0,2901.0 L 2238.0,2905.0 L 2248.0,2900.0 L 2235.0,2927.0 L 2233.0,2932.0 L 2230.0,2949.0 L 2228.0,2956.0 L 2228.0,2933.0 L 2245.0,2926.0 L 2243.0,2932.0 L 2236.0,2948.0 L 2232.0,2945.0 L 2229.0,2933.0 L 2219.0,2952.0 L 2216.0,2966.0 L 2214.0,2974.0 L 2205.0,2992.0 L 2206.0,2985.0 L 2214.0,2963.0 L 2217.0,2957.0 L 2228.0,2941.0 L 2223.0,2955.0 L 2221.0,2965.0 L 2208.0,2991.0 L 2200.0,2997.0 L 2193.0,3003.0 L 2187.0,3011.0 L 2179.0,3010.0 L 2175.0,3020.0 L 2166.0,3025.0 L 2163.0,3029.0 L 2163.0,3034.0 L 2172.0,3017.0 L 2176.0,3013.0 L 2182.0,3003.0 L 2180.0,3010.0 L 2192.0,2991.0 L 2198.0,2981.0 L 2206.0,2966.0 L 2204.0,2976.0 L 2200.0,2987.0 L 2213.0,2985.0 L 2210.0,2992.0 L 2201.0,2998.0 L 2195.0,3006.0 L 2183.0,3024.0 L 2193.0,3015.0 L 2200.0,3003.0 L 2205.0,2979.0 L 2216.0,2952.0 L 2232.0,2927.0 L 2243.0,2905.0 L 2245.0,2900.0 L 2250.0,2882.0 L 2254.0,2872.0 L 2253.0,2882.0 L 2253.0,2895.0 L 2258.0,2893.0 L 2267.0,2879.0 L 2261.0,2880.0 L 2261.0,2875.0 L 2260.0,2868.0 L 2258.0,2882.0 L 2258.0,2891.0 L 2250.0,2919.0 L 2242.0,2940.0 L 2239.0,2935.0 L 2238.0,2926.0 L 2245.0,2919.0 L 2250.0,2899.0 L 2252.0,2890.0 L 2261.0,2881.0 L 2269.0,2868.0 L 2269.0,2849.0 L 2273.0,2856.0 L 2252.0,2872.0 L 2274.0,2876.0 L 2279.0,2877.0 L 2265.0,2901.0 L 2281.0,2926.0 L 2283.0,2938.0 L 2283.0,2943.0 L 2288.0,2946.0 L 2287.0,2960.0 L 2285.0,2967.0 L 2284.0,2975.0 L 2281.0,2988.0 L 2277.0,3004.0 L 2274.0,3012.0 L 2274.0,3007.0 L 2275.0,2992.0 L 2279.0,2976.0 L 2283.0,2971.0 L 2289.0,2964.0 L 2284.0,2961.0 L 2281.0,2970.0 L 2281.0,2975.0 L 2276.0,3000.0 L 2272.0,3007.0 L 2265.0,3017.0 L 2259.0,3022.0 L 2264.0,3019.0 L 2280.0,3004.0 L 2278.0,3009.0 L 2274.0,3012.0 L 2271.0,3016.0 L 2255.0,3028.0 L 2252.0,3032.0 L 2258.0,3033.0 L 2250.0,3037.0 L 2243.0,3051.0 L 2232.0,3060.0 L 2236.0,3057.0 L 2225.0,3084.0 L 2226.0,3078.0 L 2231.0,3058.0 L 2236.0,3054.0 L 2244.0,3046.0 L 2248.0,3043.0 L 2253.0,3038.0 L 2269.0,3020.0 L 2251.0,3034.0 L 2246.0,3039.0 L 2242.0,3045.0 L 2227.0,3061.0 L 2224.0,3078.0 L 2218.0,3088.0 L 2206.0,3108.0 L 2191.0,3133.0 L 2179.0,3158.0 L 2169.0,3163.0 L 2166.0,3167.0 L 2152.0,3190.0 L 2151.0,3196.0 L 2147.0,3204.0 L 2141.0,3202.0 L 2133.0,3217.0 L 2114.0,3240.0 L 2109.0,3249.0 L 2106.0,3245.0 L 2096.0,3254.0 L 2089.0,3275.0 L 2089.0,3291.0 L 2095.0,3278.0 L 2097.0,3266.0 L 2106.0,3252.0 L 2111.0,3241.0 L 2126.0,3222.0 L 2129.0,3218.0 L 2138.0,3203.0 L 2156.0,3192.0 L 2161.0,3184.0 L 2174.0,3163.0 L 2177.0,3159.0 L 2186.0,3135.0 L 2183.0,3139.0 L 2172.0,3161.0 L 2159.0,3183.0 L 2153.0,3192.0 L 2135.0,3215.0 L 2127.0,3217.0 L 2110.0,3239.0 L 2103.0,3252.0 L 2097.0,3261.0 L 2086.0,3285.0 L 2086.0,3300.0 L 2085.0,3306.0 L 2075.0,3334.0 L 2073.0,3353.0 L 2073.0,3359.0 L 2065.0,3379.0 L 2068.0,3365.0 L 2071.0,3355.0 L 2080.0,3327.0 L 2090.0,3299.0 L 2088.0,3293.0 L 2094.0,3270.0 L 2107.0,3264.0 L 2102.0,3261.0 L 2090.0,3260.0 L 2084.0,3287.0 L 2083.0,3301.0 L 2081.0,3310.0 L 2080.0,3316.0 L 2068.0,3309.0 L 2062.0,3307.0 L 2061.0,3317.0 L 2058.0,3336.0 L 2049.0,3364.0 L 2053.0,3361.0 L 2051.0,3366.0 L 2059.0,3343.0 L 2061.0,3338.0 L 2064.0,3310.0 L 2080.0,3287.0 L 2085.0,3277.0 L 2091.0,3275.0 L 2102.0,3269.0 L 2101.0,3252.0 L 2086.0,3270.0 L 2078.0,3286.0 L 2065.0,3304.0 L 2066.0,3320.0 L 2069.0,3305.0 L 2065.0,3302.0 L 2053.0,3317.0 L 2050.0,3321.0 L 2061.0,3312.0 L 2055.0,3312.0 L 2049.0,3315.0 L 2047.0,3322.0 L 2045.0,3334.0 L 2039.0,3351.0 L 2033.0,3364.0 L 2030.0,3376.0 L 2026.0,3388.0 L 2022.0,3396.0 L 2020.0,3401.0 L 2025.0,3388.0 L 2026.0,3381.0 L 2031.0,3362.0 L 2040.0,3342.0 L 2041.0,3334.0 L 2026.0,3347.0 L 2012.0,3359.0 L 2007.0,3363.0 L 2003.0,3370.0 L 1994.0,3382.0 L 1988.0,3383.0 L 1971.0,3381.0 L 1977.0,3378.0 L 1988.0,3372.0 L 1999.0,3363.0 L 2006.0,3355.0 L 2001.0,3355.0 L 1986.0,3371.0 L 1994.0,3365.0 L 2003.0,3356.0 L 1995.0,3348.0 L 2000.0,3346.0 L 1991.0,3352.0 L 1978.0,3368.0 L 1991.0,3346.0 L 1998.0,3342.0 L 2014.0,3329.0 L 2018.0,3326.0 L 2029.0,3312.0 L 2034.0,3307.0 L 2029.0,3307.0 L 2036.0,3303.0 L 2042.0,3301.0 L 2055.0,3286.0 L 2069.0,3270.0 L 2060.0,3277.0 L 2041.0,3299.0 L 2032.0,3312.0 L 2023.0,3323.0 L 2028.0,3320.0 L 2013.0,3333.0 L 1999.0,3344.0 L 1993.0,3348.0 L 1989.0,3351.0 L 1983.4737758250046,3355.521456143178" fill="none" stroke="#404040" stroke-width="3.0"/>
	<path d="M 1984.8286275075532,3380.1431375377665 L 1986.0,3386.0 L 1985.1990177743728,3386.800982225627" fill="none" stroke="#404040" stroke-width="3.0"/>
	<path d="M 1984.7991177150973,3383.5082352522477 L 1997.0,3376.0 L 2002.0,3369.0 L 2002.0,3377.0 L 1997.0,3386.0 L 1989.0,3391.0 L 1995.0,3391.0 L 1988.1043349181691,3395.4132256523717" fill="none" stroke="#404040" stroke-width="3.0"/>
	<path d="M 1976.6413541537659,3441.6139063080536 L 1977.0,3440.0 L 1980.0,3434.0 L 1981.0,3439.0 L 1978.0,3444.0 L 1977.7100088501377,3444.985969909532" fill="none" stroke="#404040" stroke-width="3.0"/>
	<path d="M 1987.7340904951884,3461.9467706616933 L 1994.0,3457.0 L 1999.0,3459.0 L 1999.0,3467.0 L 2006.0,3457.0 L 2018.0,3438.0 L 2009.0,3457.0 L 2002.0,3464.0 L 1997.0,3471.0 L 1995.0,3464.0 L 2003.0,3467.0 L 2001.0,3461.0 L 2017.0,3436.0 L 2007.0,3427.0 L 1996.0,3446.0 L 1995.0,3451.0 L 1991.0,3459.0 L 1986.3379223329996,3469.256570867401" fill="none" stroke="#404040" stroke-width="3.0"/>
	<path d="M 1982.2668746032225,3465.5632961038177 L 1993.0,3448.0 L 1991.0,3454.0 L 1987.0,3462.0 L 1984.0,3469.0 L 1981.0,3465.0 L 1981.055634618153,3465.556346181529" fill="none" stroke="#404040" stroke-width="3.0"/>
	<path d="M 1983.6895482990853,3399.7968625853177 L 1986.0,3397.0 L 1989.0,3392.0 L 2001.0,3376.0 L 2005.0,3371.0 L 2011.0,3362.0 L 2019.0,3362.0 L 2015.0,3359.0 L 2010.0,3359.0 L 2023.0,3346.0 L 2032.0,3345.0 L 2031.0,3338.0 L 2026.0,3341.0 L 2018.0,3364.0 L 2012.0,3378.0 L 2008.0,3388.0 L 2021.0,3391.0 L 2027.0,3391.0 L 2025.0,3399.0 L 2022.0,3404.0 L 2015.0,3414.0 L 2010.0,3417.0 L 2013.0,3413.0 L 2024.0,3397.0 L 2028.0,3389.0 L 2033.0,3376.0 L 2031.0,3366.0 L 2019.0,3356.0 L 2017.0,3362.0 L 2007.0,3383.0 L 2006.0,3391.0 L 2003.0,3405.0 L 2001.0,3399.0 L 2006.0,3401.0 L 2009.0,3391.0 L 2019.0,3368.0 L 2021.0,3363.0 L 2029.0,3340.0 L 2034.0,3337.0 L 2051.0,3321.0 L 2043.0,3349.0 L 2043.0,3332.0 L 2032.0,3337.0 L 2049.0,3319.0 L 2052.0,3315.0 L 2071.0,3292.0 L 2083.0,3276.0 L 2082.0,3288.0 L 2082.0,3294.0 L 2078.0,3311.0 L 2077.0,3319.0 L 2074.0,3332.0 L 2073.0,3337.0 L 2078.0,3361.0 L 2075.0,3366.0 L 2076.0,3359.0 L 2080.0,3346.0 L 2081.0,3329.0 L 2078.0,3341.0 L 2074.0,3363.0 L 2066.0,3382.0 L 2064.0,3390.0 L 2046.0,3402.0 L 2042.0,3406.0 L 2037.0,3422.0 L 2033.0,3434.0 L 2037.0,3429.0 L 2046.0,3407.0 L 2043.0,3411.0 L 2030.0,3432.0 L 2025.0,3440.0 L 2030.0,3439.0 L 2033.0,3431.0 L 2045.0,3416.0 L 2050.0,3404.0 L 2052.0,3397.0 L 2055.0,3389.0 L 2059.0,3397.0 L 2054.0,3399.0 L 2043.0,3408.0 L 2051.0,3394.0 L 2047.0,3388.0 L 2045.0,3381.0 L 2043.0,3387.0 L 2065.0,3399.0 L 2066.0,3405.0 L 2065.0,3410.0 L 2061.0,3423.0 L 2060.0,3429.0 L 2056.0,3444.0 L 2054.0,3429.0 L 2054.0,3419.0 L 2056.0,3424.0 L 2053.0,3428.0 L 2043.0,3444.0 L 2038.0,3451.0 L 2034.0,3455.0 L 2030.0,3461.0 L 2024.0,3472.0 L 2020.0,3475.0 L 2013.0,3483.0 L 1998.0,3500.0 L 1992.0,3506.0 L 2005.0,3485.0 L 2016.0,3477.0 L 2026.0,3466.0 L 2033.0,3460.0 L 2040.0,3453.0 L 2033.0,3456.0 L 2036.0,3461.0 L 2046.0,3472.0 L 2041.0,3483.0 L 2045.0,3480.0 L 2050.0,3465.0 L 2052.0,3449.0 L 2049.0,3456.0 L 2041.0,3476.0 L 2040.0,3471.0 L 2026.0,3462.0 L 2031.0,3453.0 L 2039.0,3443.0 L 2052.0,3436.0 L 2050.0,3448.0 L 2040.0,3471.0 L 2033.0,3477.0 L 2024.0,3487.0 L 2021.0,3493.0 L 2019.0,3499.0 L 2012.0,3507.0 L 2007.0,3509.0 L 1994.0,3524.0 L 2003.0,3517.0 L 2001.0,3522.0 L 1993.0,3531.0 L 1990.0,3536.0 L 1989.0,3523.0 L 1997.0,3517.0 L 2017.0,3495.0 L 2023.0,3486.0 L 2035.0,3472.0 L 2039.0,3468.0 L 2034.0,3477.0 L 2023.0,3493.0 L 2019.0,3496.0 L 2015.0,3500.0 L 2011.0,3505.0 L 2008.0,3511.0 L 2002.0,3520.0 L 1986.0,3533.0 L 1982.7129167877295,3537.1088540153382" fill="none" stroke="#404040" stroke-width="3.0"/>
	<path d="M 1975.0633344173984,3544.9648142125566 L 1984.0,3540.0 L 1990.0,3531.0 L 1995.0,3520.0 L 1989.0,3526.0 L 1983.1957488341907,3533.0480192727687" fill="none" stroke="#404040" stroke-width="3.0"/>
	<path d="M 1982.148426658259,3516.380594296524 L 1991.0,3505.0 L 1986.0,3505.0 L 1982.984984725667,3508.6850186686293" fill="none" stroke="#404040" stroke-width="3.0"/>
	<path d="M 1982.6985284105858,3512.3919130662384 L 1983.0,3512.0 L 1998.0,3493.0 L 2004.0,3491.0 L 2012.0,3481.0 L 2017.0,3481.0 L 2015.0,3476.0 L 2018.0,3472.0 L 2028.0,3460.0 L 2036.0,3450.0 L 2040.0,3444.0 L 2056.0,3419.0 L 2062.0,3404.0 L 2062.0,3394.0 L 2058.0,3391.0 L 2066.0,3389.0 L 2075.0,3367.0 L 2073.0,3372.0 L 2062.0,3384.0 L 2061.0,3398.0 L 2064.0,3405.0 L 2061.0,3414.0 L 2056.0,3430.0 L 2059.0,3437.0 L 2058.0,3421.0 L 2058.0,3414.0 L 2051.0,3420.0 L 2050.0,3425.0 L 2053.0,3440.0 L 2053.0,3456.0 L 2050.0,3461.0 L 2045.0,3471.0 L 2041.0,3478.0 L 2039.0,3484.0 L 2037.0,3495.0 L 2034.0,3504.0 L 2018.0,3523.0 L 2015.0,3527.0 L 2003.0,3545.0 L 2009.0,3540.0 L 2023.0,3530.0 L 2021.0,3544.0 L 2018.0,3553.0 L 2009.0,3562.0 L 2014.0,3553.0 L 2021.0,3542.0 L 2017.0,3546.0 L 2001.0,3564.0 L 2031.0,3564.0 L 2026.0,3566.0 L 2013.0,3567.0 L 2004.0,3569.0 L 1998.0,3579.0 L 1989.0,3580.0 L 1994.0,3579.0 L 1996.0,3573.0 L 2007.0,3561.0 L 2007.0,3556.0 L 2000.0,3550.0 L 1990.0,3559.0 L 1993.0,3552.0 L 2004.0,3534.0 L 2009.0,3531.0 L 2014.0,3533.0 L 2018.0,3527.0 L 2028.0,3514.0 L 2031.0,3509.0 L 2036.0,3508.0 L 2028.0,3505.0 L 2035.0,3495.0 L 2046.0,3481.0 L 2041.0,3492.0 L 2035.0,3509.0 L 2031.0,3513.0 L 2021.0,3528.0 L 2017.0,3532.0 L 2010.0,3537.0 L 2005.0,3537.0 L 1997.0,3543.0 L 1986.0,3556.0 L 1982.028502484158,3562.8082814557292" fill="none" stroke="#404040" stroke-width="3.0"/>
	<path d="M 1977.8941970606013,3593.176338232331 L 1978.0,3593.0 L 1985.0,3591.0 L 1990.0,3585.0 L 2019.0,3587.0 L 2024.0,3591.0 L 2031.0,3587.0 L 2042.0,3583.0 L 2031.0,3583.0 L 2026.0,3579.0 L 2015.0,3584.0 L 2007.0,3583.0 L 2001.0,3583.0 L 1988.0,3582.0 L 1982.7677586728437,3592.0284625437166" fill="none" stroke="#404040" stroke-width="3.0"/>
	<path d="M 1981.9703139562146,3608.4035203576973 L 1980.0,3602.0 L 1990.0,3588.0 L 1996.0,3587.0 L 1994.0,3581.0 L 2003.0,3566.0 L 2010.0,3566.0 L 2010.0,3556.0 L 2023.0,3548.0 L 2023.0,3543.0 L 2019.0,3519.0 L 2034.0,3501.0 L 2028.0,3502.0 L 2026.0,3507.0 L 2011.0,3529.0 L 1998.0,3548.0 L 1990.0,3558.0 L 1982.1668142460605,3567.0382912545456" fill="none" stroke="#404040" stroke-width="3.0"/>
	<path d="M 1983.80313177697,3558.4645788153534 L 1992.0,3553.0 L 1986.0,3560.0 L 1984.2477844353953,3561.7522155646047" fill="none" stroke="#404040" stroke-width="3.0"/>
	<path d="M 1991.4817240914808,3621.559898582854 L 2001.0,3621.0 L 2008.0,3621.0 L 2013.0,3620.0 L 2008.0,3623.0 L 2000.0,3621.0 L 1993.0,3625.0 L 1979.0,3626.0 L 1984.0,3624.0 L 1994.0,3623.0 L 2005.0,3618.0 L 2013.0,3619.0 L 2034.0,3623.0 L 2035.0,3618.0 L 2039.0,3623.0 L 2031.0,3627.0 L 2032.0,3618.0 L 2037.0,3607.0 L 2037.0,3599.0 L 2045.0,3607.0 L 2033.0,3607.0 L 2032.0,3601.0 L 2040.0,3604.0 L 2035.0,3605.0 L 2027.0,3603.0 L 2017.0,3604.0 L 1991.0,3604.0 L 1985.0,3602.0 L 1976.0,3602.0 L 1978.0,3596.0 L 1984.0,3593.0 L 1984.0,3601.0 L 2014.0,3601.0 L 2013.0,3606.0 L 2000.0,3604.0 L 1994.0,3605.0 L 1989.8247285163238,3606.7080656069584" fill="none" stroke="#404040" stroke-width="3.0"/>
	<path d="M 3081.153813932329,3932.4606040375343 L 3081.0,3928.0 L 3082.0,3909.0 L 3081.0,3898.0 L 3081.0,3872.0 L 3082.0,3850.0 L 3081.0,3838.0 L 3082.0,3809.0 L 3081.0,3790.0 L 3082.0,3785.0 L 3082.0,3760.0 L 3082.0,3740.0 L 3082.0,3718.0 L 3082.0,3688.0 L 3082.0,3658.0 L 3082.0,3628.0 L 3082.0,3604.0 L 3082.0,3580.0 L 3082.0,3550.0 L 3082.0,3530.0 L 3082.0,3508.0 L 3082.0,3488.0 L 3082.0,3477.0 L 3085.0,3453.0 L 3082.0,3440.0 L 3082.0,3418.0 L 3082.0,3388.0 L 3082.0,3380.0 L 3081.0,3357.0 L 3083.0,3328.0 L 3084.0,3302.0 L 3084.0,3286.0 L 3084.0,3256.0 L 3082.0,3234.0 L 3081.0,3207.0 L 3086.0,3195.0 L 3082.0,3192.0 L 3082.0,3201.0 L 3084.0,3230.0 L 3084.0,3200.0 L 3081.0,3171.0 L 3082.0,3185.0 L 3086.0,3192.0 L 3084.0,3176.0 L 3084.0,3158.0 L 3085.0,3137.0 L 3082.0,3133.0 L 3081.0,3117.0 L 3081.0,3095.0 L 3082.0,3068.0 L 3081.0,3054.0 L 3082.0,3039.0 L 3082.0,3019.0 L 3082.0,2999.0 L 3082.0,2969.0 L 3083.0,2964.0 L 3081.0,2939.0 L 3084.0,2911.0 L 3084.0,2886.0 L 3085.0,2862.0 L 3081.0,2865.0 L 3083.0,2844.0 L 3082.0,2839.0 L 3082.0,2815.0 L 3082.0,2797.0 L 3082.0,2781.0 L 3084.0,2786.0 L 3084.0,2764.0 L 3082.0,2757.0 L 3082.0,2744.0 L 3084.0,2728.0 L 3083.0,2720.0 L 3082.0,2709.0 L 3082.0,2679.0 L 3082.0,2674.0 L 3081.412109660065,2657.539070481832" fill="none" stroke="#404040" stroke-width="3.0"/>
	<path d="M 3087.0,2657.5438770302626 L 3087.0,2672.0 L 3087.0,2702.0 L 3087.0,2722.0 L 3083.0,2749.0 L 3087.0,2746.0 L 3087.0,2760.0 L 3087.0,2790.0 L 3087.0,2811.0 L 3087.0,2836.0 L 3087.0,2848.0 L 3087.0,2878.0 L 3087.0,2900.0 L 3087.0,2924.0 L 3087.0,2936.0 L 3087.0,2966.0 L 3087.0,2996.0 L 3087.0,3017.0 L 3087.0,3030.0 L 3087.0,3054.0 L 3087.0,3084.0 L 3087.0,3114.0 L 3087.0,3135.0 L 3087.0,3148.0 L 3087.0,3172.0 L 3087.0,3202.0 L 3087.0,3223.0 L 3087.0,3251.0 L 3087.0,3259.0 L 3086.0,3265.0 L 3082.0,3290.0 L 3081.0,3309.0 L 3082.0,3338.0 L 3082.0,3343.0 L 3084.0,3367.0 L 3085.0,3338.0 L 3085.0,3330.0 L 3084.0,3304.0 L 3082.0,3289.0 L 3081.0,3260.0 L 3082.0,3238.0 L 3084.0,3231.0 L 3086.0,3255.0 L 3087.0,3260.0 L 3087.0,3290.0 L 3087.0,3320.0 L 3087.0,3350.0 L 3087.0,3380.0 L 3087.0,3410.0 L 3087.0,3440.0 L 3087.0,3461.0 L 3087.0,3489.0 L 3087.0,3498.0 L 3087.0,3528.0 L 3087.0,3558.0 L 3087.0,3588.0 L 3087.0,3618.0 L 3087.0,3648.0 L 3087.0,3678.0 L 3087.0,3708.0 L 3087.0,3738.0 L 3087.0,3768.0 L 3087.0,3798.0 L 3087.0,3828.0 L 3087.0,3858.0 L 3087.0,3888.0 L 3087.0,3918.0 L 3087.0,3932.456122969646" fill="none" stroke="#404040" stroke-width="3.0"/>
	<path d="M 1972.0972674879833,3211.2036433493554 L 1973.0,3210.0 L 1977.0,3206.0 L 1985.0,3199.0 L 1976.0,3191.0 L 1973.2265653661193,3192.155597764117" fill="none" stroke="#404040" stroke-width="3.0"/>
	<path d="M 1972.976925497492,3189.5526612323124 L 1982.0,3184.0 L 1998.0,3168.0 L 2006.0,3162.0 L 1999.0,3170.0 L 1984.0,3185.0 L 1974.0,3188.0 L 1989.0,3175.0 L 1996.0,3168.0 L 2018.0,3148.0 L 2011.0,3153.0 L 2003.0,3150.0 L 2017.0,3140.0 L 2033.0,3118.0 L 2040.0,3115.0 L 2045.0,3114.0 L 2062.0,3097.0 L 2085.0,3078.0 L 2101.0,3060.0 L 2107.0,3055.0 L 2118.0,3044.0 L 2122.0,3039.0 L 2127.0,3039.0 L 2129.0,3046.0 L 2124.0,3044.0 L 2132.0,3038.0 L 2125.0,3049.0 L 2124.0,3035.0 L 2108.0,3051.0 L 2103.0,3055.0 L 2094.0,3065.0 L 2090.0,3069.0 L 2083.0,3077.0 L 2060.0,3096.0 L 2044.0,3112.0 L 2026.0,3129.0 L 2021.0,3131.0 L 2017.0,3136.0 L 2010.0,3143.0 L 2008.0,3155.0 L 2006.0,3163.0 L 2011.0,3157.0 L 2031.0,3137.0 L 2036.0,3134.0 L 2042.0,3132.0 L 2050.0,3124.0 L 2065.0,3111.0 L 2078.0,3099.0 L 2080.0,3091.0 L 2084.0,3088.0 L 2101.0,3074.0 L 2108.0,3066.0 L 2105.0,3073.0 L 2091.0,3085.0 L 2078.0,3096.0 L 2066.0,3107.0 L 2051.0,3120.0 L 2043.0,3128.0 L 2039.0,3133.0 L 2022.0,3148.0 L 2033.0,3164.0 L 2040.0,3171.0 L 2044.0,3162.0 L 2048.0,3159.0 L 2061.0,3154.0 L 2070.0,3149.0 L 2076.0,3143.0 L 2086.0,3135.0 L 2106.0,3120.0 L 2106.0,3108.0 L 2110.0,3105.0 L 2103.0,3102.0 L 2114.0,3089.0 L 2119.0,3086.0 L 2124.0,3082.0 L 2128.0,3078.0 L 2136.0,3065.0 L 2141.0,3058.0 L 2133.0,3077.0 L 2132.0,3082.0 L 2131.0,3099.0 L 2126.0,3110.0 L 2130.0,3087.0 L 2144.0,3082.0 L 2127.0,3082.0 L 2120.0,3088.0 L 2113.0,3092.0 L 2118.0,3084.0 L 2133.0,3073.0 L 2130.0,3079.0 L 2133.0,3084.0 L 2128.0,3090.0 L 2126.0,3095.0 L 2125.0,3109.0 L 2123.0,3091.0 L 2115.0,3108.0 L 2111.0,3114.0 L 2091.0,3128.0 L 2087.0,3132.0 L 2068.0,3147.0 L 2061.0,3149.0 L 2045.0,3152.0 L 2039.0,3154.0 L 2028.0,3175.0 L 2026.0,3180.0 L 2046.0,3163.0 L 2037.0,3182.0 L 2052.0,3160.0 L 2056.0,3157.0 L 2059.0,3148.0 L 2076.0,3131.0 L 2084.0,3127.0 L 2100.0,3103.0 L 2106.0,3097.0 L 2113.0,3102.0 L 2108.0,3110.0 L 2090.0,3124.0 L 2093.0,3119.0 L 2099.0,3107.0 L 2113.0,3095.0 L 2113.0,3090.0 L 2118.0,3096.0 L 2111.0,3111.0 L 2105.0,3115.0 L 2095.0,3123.0 L 2070.0,3138.0 L 2070.0,3144.0 L 2064.0,3149.0 L 2070.0,3152.0 L 2079.0,3143.0 L 2096.0,3130.0 L 2081.0,3125.0 L 2078.0,3129.0 L 2089.0,3118.0 L 2101.0,3114.0 L 2109.0,3100.0 L 2090.0,3122.0 L 2087.0,3129.0 L 2083.0,3133.0 L 2067.0,3143.0 L 2051.0,3166.0 L 2046.0,3166.0 L 2052.0,3154.0 L 2060.0,3157.0 L 2051.0,3149.0 L 2028.0,3168.0 L 2024.0,3197.0 L 2032.0,3184.0 L 2040.0,3172.0 L 2032.0,3178.0 L 2026.0,3186.0 L 2018.0,3192.0 L 2007.0,3207.0 L 2003.0,3214.0 L 2008.0,3211.0 L 2015.0,3200.0 L 2019.0,3196.0 L 2024.0,3181.0 L 2026.0,3168.0 L 2018.0,3183.0 L 1995.0,3202.0 L 1989.0,3202.0 L 1979.0,3214.0 L 1985.0,3214.0 L 1995.0,3200.0 L 2004.0,3191.0 L 2008.0,3185.0 L 2017.0,3181.0 L 2024.0,3181.0 L 2032.0,3179.0 L 2022.0,3200.0 L 2022.0,3172.0 L 2018.0,3178.0 L 2015.0,3184.0 L 1999.0,3194.0 L 1993.0,3199.0 L 1983.0,3213.0 L 1972.4716534378535,3223.5283465621465" fill="none" stroke="#404040" stroke-width="3.0"/>
	<path d="M 1973.3160710623208,3224.8946429792263 L 1976.0,3224.0 L 1973.173722829197,3225.3044356172936" fill="none" stroke="#404040" stroke-width="3.0"/>
	<path d="M 1972.4716534378563,3220.5283465621437 L 1978.0,3215.0 L 1972.908386717796,3218.394408854803" fill="none" stroke="#404040" stroke-width="3.0"/>
	<path d="M 1972.1835876885652,3208.0205153892935 L 1977.0,3202.0 L 1990.0,3193.0 L 2006.0,3178.0 L 2000.0,3171.0 L 1989.0,3162.0 L 1980.0,3169.0 L 1987.0,3167.0 L 1972.944114041104,3175.9957670136932" fill="none" stroke="#404040" stroke-width="3.0"/>
	<path d="M 2954.0,2757.0 L 2964.0,2757.0 L 2963.0,2762.0 L 2952.0,2759.0 L 2946.0,2758.0 L 2952.0,2756.0 L 2957.0,2756.0 L 2969.0,2753.0 L 2951.0,2750.0 L 2949.0,2757.0 L 2949.0,2762.0 L 2957.0,2761.0 L 2969.0,2755.0 L 2947.0,2752.0 L 2942.0,2752.0 L 2929.0,2757.0 L 2918.0,2759.0 L 2923.0,2757.0 L 2904.0,2755.0 L 2887.0,2755.0 L 2895.0,2752.0 L 2905.0,2752.0 L 2911.0,2753.0 L 2921.0,2755.0 L 2948.0,2754.0 L 2927.0,2759.0 L 2917.0,2752.0 L 2907.0,2749.0 L 2902.0,2749.0 L 2888.0,2752.0 L 2883.0,2755.0 L 2855.0,2748.0 L 2852.0,2752.0 L 2868.0,2752.0 L 2866.0,2757.0 L 2865.0,2748.0 L 2891.0,2754.0 L 2895.0,2758.0 L 2890.0,2758.0 L 2885.0,2757.0 L 2866.0,2754.0 L 2837.0,2758.0 L 2829.0,2756.0 L 2810.0,2747.0 L 2791.0,2748.0 L 2782.0,2749.0 L 2775.0,2749.0 L 2768.0,2748.0 L 2758.0,2749.0 L 2747.0,2749.0 L 2743.0,2752.0 L 2760.0,2752.0 L 2768.0,2751.0 L 2777.0,2749.0 L 2782.0,2745.0 L 2811.0,2746.0 L 2834.0,2754.0 L 2829.0,2754.0 L 2805.0,2749.0 L 2794.0,2750.0 L 2788.0,2749.0 L 2783.0,2746.0 L 2770.0,2746.0 L 2765.0,2745.0" fill="none" stroke="#404040" stroke-width="3.0"/>
	<path d="M 2077.0,2895.0 L 2063.0,2913.0 L 2048.0,2925.0 L 2053.0,2925.0 L 2075.0,2905.0 L 2080.0,2898.0 L 2089.0,2880.0 L 2091.0,2875.0 L 2092.0,2864.0 L 2094.0,2849.0 L 2087.0,2864.0 L 2074.0,2891.0 L 2068.0,2897.0 L 2055.0,2904.0 L 2060.0,2921.0 L 2052.0,2920.0 L 2063.0,2929.0 L 2055.0,2935.0 L 2050.0,2938.0 L 2045.0,2942.0 L 2057.0,2941.0 L 2061.0,2936.0 L 2065.0,2929.0 L 2073.0,2916.0 L 2096.0,2917.0 L 2091.0,2919.0 L 2082.0,2926.0 L 2078.0,2932.0 L 2077.0,2940.0 L 2065.0,2948.0 L 2058.0,2953.0 L 2053.0,2956.0 L 2048.0,2950.0 L 2053.0,2950.0 L 2063.0,2949.0 L 2077.0,2954.0 L 2060.0,2962.0 L 2050.0,2967.0 L 2036.0,2961.0 L 2032.0,2958.0 L 2026.0,2950.0 L 2031.0,2960.0 L 2033.0,2968.0 L 2036.0,2977.0 L 2031.0,2974.0 L 2018.0,2956.0 L 2006.0,2954.0 L 2014.0,2927.0 L 2014.0,2937.0 L 2011.0,2941.0 L 2004.0,2942.0 L 2010.0,2931.0 L 2009.0,2937.0 L 2004.0,2948.0 L 2005.0,2953.0 L 2006.0,2947.0 L 2009.0,2953.0 L 2015.0,2961.0 L 2016.0,2956.0 L 2017.0,2945.0 L 2020.0,2941.0 L 2020.0,2951.0 L 2018.0,2960.0 L 2019.0,2966.0 L 2028.0,2962.0 L 2028.0,2967.0 L 2027.0,2961.0 L 2025.0,2953.0 L 2013.0,2949.0 L 2015.0,2957.0 L 2016.0,2968.0 L 2028.0,2958.0 L 2031.0,2970.0 L 2031.0,2975.0 L 2035.0,2972.0 L 2035.0,2962.0 L 2038.0,2954.0 L 2033.0,2956.0 L 2043.0,2962.0 L 2036.0,2964.0 L 2055.0,2971.0 L 2061.0,2967.0 L 2076.0,2955.0 L 2083.0,2947.0 L 2086.0,2942.0 L 2073.0,2953.0 L 2067.0,2957.0 L 2064.0,2962.0 L 2049.0,2972.0 L 2056.0,2973.0 L 2049.0,2963.0 L 2050.0,2956.0 L 2063.0,2946.0 L 2070.0,2940.0 L 2067.0,2944.0 L 2083.0,2932.0 L 2081.0,2937.0 L 2092.0,2920.0 L 2076.0,2936.0 L 2076.0,2926.0 L 2085.0,2904.0 L 2075.0,2918.0 L 2067.0,2928.0 L 2082.0,2915.0 L 2087.0,2906.0 L 2091.0,2895.0 L 2096.0,2896.0 L 2092.0,2890.0 L 2092.0,2885.0 L 2095.0,2878.0 L 2094.0,2870.0 L 2096.0,2849.0 L 2089.0,2865.0 L 2084.0,2869.0 L 2078.0,2874.0 L 2067.0,2885.0 L 2095.0,2890.0 L 2094.0,2895.0 L 2085.0,2917.0 L 2068.0,2929.0 L 2073.0,2929.0 L 2051.0,2939.0 L 2047.0,2944.0 L 2057.0,2939.0 L 2059.0,2933.0 L 2052.0,2928.0 L 2058.0,2910.0 L 2068.0,2888.0 L 2079.0,2876.0 L 2086.0,2872.0 L 2088.0,2867.0 L 2100.0,2871.0 L 2095.0,2872.0 L 2089.0,2886.0 L 2085.0,2894.0 L 2068.0,2909.0 L 2082.0,2892.0 L 2070.0,2889.0 L 2066.0,2900.0 L 2076.0,2883.0 L 2066.0,2884.0 L 2057.0,2884.0 L 2069.0,2869.0 L 2075.0,2860.0 L 2077.0,2846.0 L 2077.0,2836.0 L 2069.0,2841.0 L 2064.0,2841.0 L 2070.0,2838.0 L 2073.0,2834.0 L 2080.0,2831.0 L 2093.0,2806.0 L 2088.0,2806.0 L 2081.0,2797.0 L 2076.0,2802.0 L 2076.0,2790.0 L 2077.0,2782.0 L 2077.0,2760.0 L 2071.0,2756.0 L 2065.0,2746.0 L 2065.0,2767.0 L 2066.0,2775.0 L 2068.0,2804.0 L 2070.0,2810.0 L 2071.0,2820.0 L 2073.0,2826.0 L 2079.0,2828.0 L 2087.0,2814.0 L 2091.0,2808.0 L 2083.0,2814.0 L 2079.0,2811.0 L 2074.0,2803.0 L 2070.0,2800.0 L 2075.0,2787.0 L 2060.0,2807.0 L 2065.0,2809.0 L 2085.0,2812.0 L 2081.0,2820.0 L 2079.0,2829.0 L 2073.0,2830.0 L 2070.0,2835.0 L 2070.0,2830.0 L 2064.0,2826.0 L 2068.0,2820.0 L 2068.0,2815.0 L 2066.0,2807.0 L 2063.0,2783.0 L 2062.0,2778.0 L 2080.0,2785.0 L 2087.0,2789.0 L 2082.0,2789.0 L 2075.0,2786.0 L 2066.0,2784.0 L 2059.0,2788.0 L 2065.0,2768.0 L 2071.0,2770.0 L 2071.0,2756.0 L 2072.0,2741.0 L 2068.0,2746.0 L 2049.0,2741.0 L 2051.0,2762.0 L 2054.0,2753.0 L 2056.0,2728.0 L 2057.0,2733.0 L 2059.0,2747.0 L 2060.0,2742.0 L 2060.0,2718.0 L 2068.0,2746.0 L 2072.0,2753.0 L 2067.0,2754.0 L 2053.0,2761.0 L 2045.0,2761.0 L 2034.0,2781.0 L 2047.0,2774.0 L 2048.0,2756.0 L 2052.0,2752.0 L 2052.0,2747.0 L 2053.0,2733.0 L 2053.0,2723.0 L 2048.0,2722.0 L 2046.0,2716.0 L 2037.0,2702.0 L 2047.0,2707.0 L 2062.0,2710.0 L 2057.0,2726.0 L 2061.0,2732.0 L 2064.0,2743.0 L 2064.0,2738.0 L 2059.0,2766.0 L 2050.0,2766.0 L 2045.0,2765.0 L 2063.0,2761.0 L 2064.0,2752.0 L 2068.0,2755.0 L 2068.0,2773.0 L 2069.0,2778.0 L 2070.0,2791.0 L 2073.0,2785.0 L 2076.0,2768.0 L 2080.0,2763.0 L 2080.0,2791.0 L 2079.0,2796.0 L 2073.0,2817.0 L 2075.0,2826.0 L 2078.0,2809.0 L 2086.0,2783.0 L 2087.0,2778.0 L 2083.0,2784.0 L 2076.0,2793.0 L 2073.0,2799.0 L 2073.0,2808.0 L 2064.0,2813.0 L 2063.0,2805.0 L 2062.0,2800.0 L 2058.0,2811.0 L 2072.0,2812.0 L 2081.0,2812.0 L 2079.0,2819.0 L 2077.0,2828.0 L 2057.0,2828.0 L 2063.0,2832.0 L 2067.0,2836.0 L 2072.0,2835.0 L 2078.0,2835.0 L 2082.0,2844.0 L 2077.0,2859.0 L 2072.0,2859.0 L 2074.0,2852.0 L 2074.0,2846.0 L 2073.0,2839.0 L 2065.0,2827.0 L 2065.0,2817.0 L 2057.0,2834.0 L 2068.0,2834.0 L 2067.0,2844.0 L 2077.0,2850.0 L 2080.0,2844.0 L 2085.0,2836.0 L 2089.0,2826.0 L 2094.0,2834.0 L 2089.0,2836.0 L 2093.0,2830.0 L 2093.0,2825.0 L 2090.0,2830.0 L 2084.0,2844.0 L 2082.0,2852.0 L 2074.0,2850.0 L 2062.0,2846.0 L 2059.0,2858.0 L 2054.0,2860.0 L 2061.0,2845.0 L 2081.0,2841.0 L 2090.0,2838.0 L 2080.0,2857.0 L 2071.0,2870.0 L 2058.0,2886.0 L 2071.0,2861.0 L 2054.0,2885.0 L 2057.0,2889.0" fill="none" stroke="#404040" stroke-width="3.0"/>
	<path d="M 1970.4041777269329,2658.680835545387 L 1972.0,2659.0 L 2002.0,2659.0 L 1983.0,2656.0 L 1970.412182023318,2656.0" fill="none" stroke="#404040" stroke-width="3.0"/>
	<path d="M 1970.4041777269329,2661.4808355453865 L 1973.0,2662.0 L 1999.0,2662.0 L 2006.0,2661.0 L 2012.0,2656.0 L 2017.0,2656.0 L 2016.0,2661.0 L 1997.0,2656.0 L 1991.0,2655.0 L 1983.0,2656.0 L 1972.0,2653.0 L 1970.4041777269329,2653.3191644546137" fill="none" stroke="#404040" stroke-width="3.0"/>
	<path d="M 1995.876656693042,2650.1674029746855 L 2000.0,2652.0 L 2021.0,2654.0 L 2018.0,2659.0 L 2005.0,2655.0 L 1998.0,2654.0 L 1997.401095640552,2650.406573843313" fill="none" stroke="#404040" stroke-width="3.0"/>
	<path d="M 2000.419524286167,2650.1585315474304 L 1996.0,2652.0 L 1990.0,2652.0 L 1987.0,2663.0 L 1984.0,2667.0 L 1987.0,2671.0 L 1970.4087198638051,2673.1640800177647" fill="none" stroke="#404040" stroke-width="3.0"/>
	<path d="M 1970.396322886208,2669.7439077467975 L 1973.0,2669.0 L 1978.0,2670.0 L 1971.0,2671.0 L 1970.4112691052012,2671.03924872632" fill="none" stroke="#404040" stroke-width="3.0"/>
	<path d="M 2396.0,2886.0 L 2394.0,2892.0 L 2392.0,2887.0 L 2380.0,2892.0 L 2366.0,2895.0 L 2365.0,2900.0 L 2381.0,2881.0 L 2358.0,2876.0 L 2339.0,2885.0 L 2344.0,2885.0 L 2366.0,2876.0 L 2393.0,2869.0 L 2404.0,2866.0 L 2410.0,2869.0 L 2401.0,2870.0 L 2386.0,2874.0 L 2377.0,2877.0 L 2372.0,2877.0 L 2378.0,2889.0 L 2378.0,2871.0 L 2382.0,2874.0 L 2380.0,2883.0 L 2382.0,2892.0 L 2381.0,2902.0 L 2383.0,2909.0 L 2383.0,2923.0 L 2384.0,2928.0 L 2380.0,2931.0 L 2380.0,2925.0 L 2377.0,2915.0 L 2376.0,2908.0 L 2380.0,2896.0 L 2380.0,2907.0 L 2381.0,2920.0 L 2374.0,2891.0 L 2390.0,2891.0 L 2396.0,2892.0 L 2373.0,2896.0 L 2362.0,2896.0 L 2350.0,2901.0 L 2343.0,2903.0 L 2354.0,2897.0 L 2362.0,2894.0 L 2351.0,2902.0 L 2343.0,2907.0" fill="none" stroke="#404040" stroke-width="3.0"/>
	<path d="M 2493.0,2910.0 L 2504.0,2915.0 L 2485.0,2915.0 L 2501.0,2909.0 L 2504.0,2919.0 L 2484.0,2921.0 L 2489.0,2923.0 L 2502.0,2917.0 L 2485.0,2918.0 L 2475.0,2909.0 L 2472.0,2917.0 L 2467.0,2920.0 L 2451.0,2920.0 L 2470.0,2913.0 L 2466.0,2910.0 L 2467.0,2905.0 L 2464.0,2891.0 L 2462.0,2885.0 L 2457.0,2884.0 L 2439.0,2877.0 L 2440.0,2882.0 L 2440.0,2908.0 L 2440.0,2915.0 L 2435.0,2902.0 L 2438.0,2891.0 L 2444.0,2877.0 L 2467.0,2883.0 L 2469.0,2888.0 L 2472.0,2900.0 L 2477.0,2911.0 L 2456.0,2902.0 L 2437.0,2903.0 L 2439.0,2897.0 L 2450.0,2898.0 L 2466.0,2903.0 L 2477.0,2905.0 L 2452.0,2918.0 L 2437.0,2914.0 L 2433.0,2903.0 L 2437.0,2880.0 L 2444.0,2904.0 L 2457.0,2896.0 L 2451.0,2896.0 L 2462.0,2900.0 L 2459.0,2876.0 L 2469.0,2882.0 L 2473.0,2886.0 L 2452.0,2876.0 L 2444.0,2881.0 L 2458.0,2882.0 L 2466.0,2886.0 L 2472.0,2915.0 L 2463.0,2918.0 L 2453.0,2924.0" fill="none" stroke="#404040" stroke-width="3.0"/>
	<path d="M 2191.0,3062.0 L 2192.0,3054.0 L 2214.0,3035.0 L 2225.0,3008.0 L 2236.0,2988.0 L 2236.0,2996.0 L 2250.0,2971.0 L 2248.0,2978.0 L 2255.0,2959.0 L 2259.0,2953.0 L 2254.0,2966.0 L 2260.0,2955.0 L 2259.0,2948.0 L 2246.0,2973.0 L 2240.0,2983.0 L 2238.0,2988.0 L 2232.0,3001.0 L 2219.0,3027.0 L 2210.0,3034.0 L 2205.0,3044.0 L 2194.0,3059.0 L 2196.0,3052.0 L 2197.0,3047.0 L 2201.0,3044.0 L 2209.0,3033.0 L 2215.0,3026.0 L 2212.0,3035.0" fill="none" stroke="#404040" stroke-width="3.0"/>
	<path d="M 2484.0,2794.0 L 2470.0,2795.0 L 2472.0,2790.0 L 2487.0,2792.0 L 2482.0,2791.0 L 2475.0,2794.0 L 2468.0,2809.0 L 2450.0,2810.0 L 2447.0,2806.0 L 2455.0,2808.0 L 2472.0,2806.0 L 2467.0,2805.0 L 2448.0,2806.0" fill="none" stroke="#404040" stroke-width="3.0"/>
	<path d="M 2150.0,2676.0 L 2152.0,2685.0 L 2166.0,2692.0 L 2178.0,2693.0 L 2156.0,2685.0 L 2145.0,2678.0 L 2134.0,2677.0 L 2146.0,2677.0 L 2171.0,2689.0" fill="none" stroke="#404040" stroke-width="3.0"/>
	<path d="M 2185.0,2800.0 L 2200.0,2811.0 L 2201.0,2819.0 L 2199.0,2811.0 L 2197.0,2806.0 L 2192.0,2803.0 L 2189.0,2796.0 L 2188.0,2806.0 L 2183.0,2812.0 L 2182.0,2819.0 L 2178.0,2810.0 L 2183.0,2813.0 L 2178.0,2815.0" fill="none" stroke="#404040" stroke-width="3.0"/>
	<path d="M 2188.0,3144.0 L 2191.0,3138.0 L 2206.0,3113.0 L 2220.0,3089.0 L 2224.0,3084.0 L 2222.0,3077.0 L 2213.0,3092.0 L 2198.0,3117.0 L 2185.0,3139.0" fill="none" stroke="#404040" stroke-width="3.0"/>
	<path d="M 1994.0,3654.0 L 1989.0,3652.0 L 2000.0,3650.0 L 1992.0,3657.0 L 2001.0,3652.0" fill="none" stroke="#404040" stroke-width="3.0"/>
	<path d="M 3082.0,3170.0 L 3082.0,3141.0 L 3084.0,3132.0 L 3084.0,3102.0 L 3084.0,3072.0 L 3084.0,3042.0 L 3085.0,3015.0 L 3085.0,2993.0 L 3085.0,2963.0 L 3084.0,2938.0 L 3085.0,2933.0 L 3081.0,2904.0 L 3082.0,2875.0 L 3082.0,2869.0 L 3086.0,2846.0 L 3085.0,2841.0 L 3084.0,2834.0 L 3085.0,2805.0 L 3084.0,2787.0 L 3081.0,2780.0 L 3082.0,2764.0 L 3084.0,2759.0 L 3086.0,2744.0 L 3082.0,2741.0 L 3081.0,2716.0 L 3087.0,2716.0 L 3087.0,2743.0 L 3085.0,2720.0 L 3084.0,2692.0 L 3084.0,2672.0 L 3084.0,2651.0 L 3083.938843569699,2650.5311340343624" fill="none" stroke="#404040" stroke-width="3.0"/>
	<path d="M 2106.0,3229.0 L 2101.0,3231.0 L 2092.0,3241.0 L 2082.0,3251.0 L 2096.0,3241.0 L 2107.0,3223.0 L 2110.0,3216.0 L 2108.0,3227.0 L 2121.0,3206.0" fill="none" stroke="#404040" stroke-width="3.0"/>
	<path d="M 3084.0,3939.8565255213366 L 3084.0,3914.0 L 3084.0,3884.0 L 3084.0,3854.0 L 3084.0,3824.0 L 3084.0,3794.0 L 3084.0,3786.0 L 3085.0,3765.0 L 3085.0,3735.0 L 3085.0,3705.0 L 3085.0,3675.0 L 3085.0,3645.0 L 3085.0,3615.0 L 3085.0,3585.0 L 3085.0,3555.0 L 3085.0,3525.0 L 3085.0,3495.0 L 3084.0,3477.0 L 3084.0,3462.0 L 3080.0,3466.0 L 3085.0,3437.0 L 3085.0,3407.0 L 3084.0,3382.0 L 3084.0,3368.0 L 3089.0,3371.0" fill="none" stroke="#404040" stroke-width="3.0"/>
	<path d="M 1978.1705331274534,2699.0284221879087 L 1990.0,2701.0 L 1993.0,2729.0 L 1987.0,2744.0 L 1984.0,2748.0 L 1987.0,2735.0 L 1985.0,2730.0 L 1990.0,2733.0 L 1996.0,2734.0 L 2004.0,2739.0 L 1995.0,2740.0 L 1982.0,2740.0 L 1979.0,2744.0 L 1973.5768980176997,2755.448770851523" fill="none" stroke="#404040" stroke-width="3.0"/>
	<path d="M 1972.1984913529316,2754.938865039251 L 1973.0,2752.0 L 1975.0,2747.0 L 1977.896273172142,2741.207453655716" fill="none" stroke="#404040" stroke-width="3.0"/>
	<path d="M 1972.9338304237945,2737.1764522032145 L 1973.0,2737.0 L 1981.0,2737.0 L 2002.0,2732.0 L 2001.0,2726.0 L 1999.0,2744.0 L 1990.0,2759.0 L 1980.0,2773.0 L 1978.0,2779.0 L 1992.0,2762.0 L 1996.0,2751.0 L 1997.0,2741.0 L 1993.0,2749.0 L 1990.0,2754.0 L 1989.0,2762.0 L 1987.0,2771.0 L 1982.0,2778.0 L 1975.0,2791.0 L 1971.0,2796.0 L 1973.0,2790.0 L 1978.0,2780.0 L 1974.8296543579204,2784.475782082936" fill="none" stroke="#404040" stroke-width="3.0"/>
	<path d="M 1972.4911713238944,2746.526486028317 L 1975.0,2739.0 L 1978.0,2732.0 L 1972.0,2734.0 L 1977.0,2738.0 L 2001.0,2756.0 L 2020.0,2733.0 L 2020.0,2753.0 L 2027.0,2741.0 L 2030.0,2727.0 L 2024.0,2724.0 L 2019.0,2730.0 L 2027.0,2734.0 L 2027.0,2720.0 L 2022.0,2723.0 L 2014.0,2724.0 L 2014.0,2736.0 L 2015.0,2741.0 L 2008.0,2761.0 L 2005.0,2768.0 L 2004.0,2761.0 L 2004.0,2753.0 L 1998.0,2765.0 L 2002.0,2752.0 L 2005.0,2748.0 L 2007.0,2743.0 L 2010.0,2731.0 L 2011.0,2726.0 L 2019.0,2702.0 L 2013.0,2704.0 L 2027.0,2702.0 L 2028.0,2697.0 L 2019.0,2697.0 L 2009.0,2720.0 L 2019.0,2718.0 L 2022.0,2714.0 L 2002.0,2712.0 L 1997.0,2710.0 L 1998.0,2703.0 L 2002.0,2710.0 L 2002.0,2704.0 L 2005.0,2700.0 L 2012.0,2697.0 L 2007.0,2686.0 L 2008.0,2681.0 L 1998.0,2687.0 L 2001.0,2681.0 L 2005.0,2685.0 L 1994.0,2690.0 L 1983.0,2694.0 L 1978.3309413078825,2694.3591583609323" fill="none" stroke="#404040" stroke-width="3.0"/>
	<path d="M 1978.3555527096871,2697.0 L 1991.0,2697.0 L 1987.0,2700.0 L 1985.0,2695.0 L 1994.0,2693.0 L 1989.0,2709.0 L 1989.0,2717.0 L 1990.0,2726.0 L 1989.0,2731.0 L 1984.0,2702.0 L 1978.3350292588436,2701.370558806538" fill="none" stroke="#404040" stroke-width="3.0"/>
	<path d="M 1978.281648421184,2710.966407449413 L 1985.0,2712.0 L 1988.0,2708.0 L 1977.6738548916064,2709.5886377089837" fill="none" stroke="#404040" stroke-width="3.0"/>
	<path d="M 1978.355552709687,2707.0 L 1983.0,2707.0 L 1978.0,2710.0 L 1977.1160759557365,2710.5439532580085" fill="none" stroke="#404040" stroke-width="3.0"/>
	<path d="M 2406.0,2923.0 L 2409.0,2916.0 L 2414.0,2917.0 L 2410.0,2928.0 L 2407.0,2915.0 L 2415.0,2924.0" fill="none" stroke="#404040" stroke-width="3.0"/>
	<path d="M 2237.0,2746.0 L 2232.0,2745.0 L 2235.0,2750.0 L 2237.0,2745.0" fill="none" stroke="#404040" stroke-width="3.0"/>
	<path d="M 2544.0,2787.0 L 2558.0,2788.0 L 2544.0,2789.0 L 2540.0,2785.0" fill="none" stroke="#404040" stroke-width="3.0"/>
	<path d="M 1973.0,3178.0 L 1970.0059666250163,3180.0583979453013" fill="none" stroke="#404040" stroke-width="3.0"/>
	<path d="M 2910.0,2694.0 L 2898.0,2695.0" fill="none" stroke="#404040" stroke-width="3.0"/>
	<path d="M 2055.0,3558.0 L 2064.0,3563.0 L 2055.0,3562.0 L 2064.0,3559.0" fill="none" stroke="#404040" stroke-width="3.0"/>
	<path d="M 2647.0,2739.0 L 2630.0,2741.0" fill="none" stroke="#404040" stroke-width="3.0"/>
</svg>
